<svg xmlns="http://www.w3.org/2000/svg" xmlns:xlink="http://www.w3.org/1999/xlink" width="85" height="25" viewBox="0 0 85 25"><defs><style>.a{fill:#fff;}.b{clip-path:url(#a);}.c{fill:#999;}</style><clipPath id="a"><rect class="a" width="85" height="25" transform="translate(40 499)"/></clipPath></defs><g class="b" transform="translate(-40 -499)"><g transform="translate(40.009 498.956)"><path class="c" d="M12,21.9h0V19.1H11v.4h.6v2.3c0,.6.3.9.8.9h.3v-.5h-.3C12.1,22.3,12,22.2,12,21.9Z"/><path class="c" d="M14.6,21.8a1.486,1.486,0,0,0-.1.6,4.331,4.331,0,0,0-.1-.5l-1-2.6h-.5l1.3,3.6h.6l1.3-3.6h-.5Z"/><path class="c" d="M19.4,19.6a1.612,1.612,0,0,0-1.3-.6,1.536,1.536,0,0,0-1.3.5,2.3,2.3,0,0,0-.4,1.4,2.822,2.822,0,0,0,.4,1.5,1.9,1.9,0,0,0,1.3.5,1.411,1.411,0,0,0,1.5-.8l-.5-.2a.876.876,0,0,1-1,.5,1.613,1.613,0,0,1-.9-.3,1.689,1.689,0,0,1-.3-1h2.6V21a1.691,1.691,0,0,0-.1-1.4Zm-2.4,1a1.4,1.4,0,0,1,.3-.9,1.217,1.217,0,0,1,1.6,0,2.92,2.92,0,0,1,.2.9Z"/><path class="c" d="M21.2,19.3h0l-.3.3-.1-.4h-.4v3.6h.5V20l.2-.2a1.135,1.135,0,0,1,.8-.3h.3V19h-.3A1.08,1.08,0,0,0,21.2,19.3Z"/><path class="c" d="M24.3,21.8a2.034,2.034,0,0,0-.1.5,1.338,1.338,0,0,1-.1-.5l-1-2.6h-.5L24,22.9l-.2.6c0,.1-.1.2-.2.3a.6.6,0,0,1-.4.1h-.5v.5h.5a1.7,1.7,0,0,0,.7-.1,1,1,0,0,0,.4-.5L26,19.3h-.5Z"/><path class="c" d="M11.4,17.6v.6H12v-.7l-.6.1Z"/><path class="c" d="M1.8,12.5a5.654,5.654,0,0,0,4.3,2,5.222,5.222,0,0,0,2.1-.4,6.405,6.405,0,0,0,1.9-1.3v1.4h3.3V1.1H10.1V2.5A4.628,4.628,0,0,0,8.3,1.2,5.852,5.852,0,0,0,6.1.7,5.748,5.748,0,0,0,1.8,2.6,7.183,7.183,0,0,0,0,7.6a6.631,6.631,0,0,0,1.8,4.9ZM3.3,7.6a4.192,4.192,0,0,1,1-2.8A3.408,3.408,0,0,1,6.8,3.7,3.631,3.631,0,0,1,9.4,4.8a3.322,3.322,0,0,1,.9,2.7,4.124,4.124,0,0,1-.9,3l-.2.2a3.474,3.474,0,0,1-4.9-.2,4.118,4.118,0,0,1-1-2.9Z"/><path class="c" d="M10.1,21.9h0V17.5H9V18h.6v3.9c0,.6.3.9.8.9h.3v-.5h-.3C10.2,22.3,10.1,22.2,10.1,21.9Z"/><path class="c" d="M4.2,19.1a.367.367,0,0,0,.1.3A2.1,2.1,0,0,0,3.2,19c-1.1,0-1.6.6-1.6,1.9a2.1,2.1,0,0,0,.5,1.5,1.657,1.657,0,0,0,2.1,0l.1.3h.3V17.5H4.2Zm0,.7V22a1.8,1.8,0,0,1-.9.4c-.8,0-1.1-.5-1.1-1.5a2.016,2.016,0,0,1,.3-1.1.829.829,0,0,1,.8-.3.749.749,0,0,1,.5.1c-.1,0,.1.1.4.2Z"/><path class="c" d="M8.4,19.6A1.612,1.612,0,0,0,7.1,19a1.536,1.536,0,0,0-1.3.5,2.3,2.3,0,0,0-.4,1.4,2.822,2.822,0,0,0,.4,1.5,1.9,1.9,0,0,0,1.3.5,1.411,1.411,0,0,0,1.5-.8l-.5-.2a.876.876,0,0,1-1,.5,1.613,1.613,0,0,1-.9-.3,1.689,1.689,0,0,1-.3-1H8.5V21a1.691,1.691,0,0,0-.1-1.4ZM6,20.6a1.4,1.4,0,0,1,.3-.9,1.217,1.217,0,0,1,1.6,0,2.92,2.92,0,0,1,.2.9Z"/><path class="c" d="M18.4,7.4c0-2.5.7-3.8,2.4-3.8a2.92,2.92,0,0,1,.9.2,11.779,11.779,0,0,1,1.9-2.5A4.282,4.282,0,0,0,21.4.7a4.529,4.529,0,0,0-1.6.3,4.428,4.428,0,0,0-1.5,1.2V1H15.2V14.1h3.3Z"/><path class="c" d="M53.1,19.6a1.612,1.612,0,0,0-1.3-.6,1.536,1.536,0,0,0-1.3.5,2.3,2.3,0,0,0-.4,1.4,2.822,2.822,0,0,0,.4,1.5,1.9,1.9,0,0,0,1.3.5,1.411,1.411,0,0,0,1.5-.8l-.5-.2a.876.876,0,0,1-1,.5,1.613,1.613,0,0,1-.9-.3,1.689,1.689,0,0,1-.3-1h2.6V21a1.691,1.691,0,0,0-.1-1.4Zm-2.4,1a1.4,1.4,0,0,1,.3-.9,1.217,1.217,0,0,1,1.6,0,2.92,2.92,0,0,1,.2.9Z"/><path class="c" d="M48.9,22.4h0c-.2,0-.3,0-.4-.1s-.2-.3-.1-.4V19.6h1.1l.1-.5H48.3V17.7l-.5.1V19h-.6v.5h.7c0,.1-.1.2-.1.3v2a.824.824,0,0,0,.7,1h.2a2.016,2.016,0,0,0,1.1-.3l-.3-.3A1.421,1.421,0,0,1,48.9,22.4Z"/><path class="c" d="M46.3,18.1v-.6h-.5v.7l.5-.1Z"/><path class="c" d="M56.7,19.1a.367.367,0,0,0,.1.3,2.1,2.1,0,0,0-1.1-.4c-1.1,0-1.6.6-1.6,1.9a2.1,2.1,0,0,0,.5,1.5,1.657,1.657,0,0,0,2.1,0l.1.3h.3V17.5h-.5Zm-.1.7V22a1.8,1.8,0,0,1-.9.4c-.8,0-1.1-.5-1.1-1.5a2.016,2.016,0,0,1,.3-1.1.829.829,0,0,1,.8-.3.749.749,0,0,1,.5.1l.4.2Z"/><path class="c" d="M80,7.2,84.4,1H80.7L78.1,4.6,75.6,1H71.8l4.4,6.3-4.9,6.9H75l3.1-4.3,3.1,4.3H85Z"/><path class="c" d="M55.2,1.4h0A5.2,5.2,0,0,0,52.7.7a5.421,5.421,0,0,0-2.5.6,4.689,4.689,0,0,0-1.9,1.8,5.48,5.48,0,0,0-1.6-1.8A4.282,4.282,0,0,0,44.5.7a4.193,4.193,0,0,0-2.2.5,4.887,4.887,0,0,0-1.8,1.4V1.1H37.2V14.2h3.3V8.4a13.329,13.329,0,0,1,.3-2.8,3.316,3.316,0,0,1,1-1.4,2.456,2.456,0,0,1,1.5-.5,2.2,2.2,0,0,1,1.3.4,2.55,2.55,0,0,1,.8,1.2,10.679,10.679,0,0,1,.3,2.5v6.3H49V8.3a12.412,12.412,0,0,1,.3-2.7,2.56,2.56,0,0,1,1-1.3,2.7,2.7,0,0,1,1.5-.5,2.136,2.136,0,0,1,1.7.8,6.214,6.214,0,0,1,.6,3v6.6h3.3V6.5a7.826,7.826,0,0,0-.5-3.4A5.513,5.513,0,0,0,55.2,1.4Z"/><path class="c" d="M68.6,10.3a4.158,4.158,0,0,1-3.1,1.3,4.376,4.376,0,0,1-2.5-.8,3.47,3.47,0,0,1-1.2-2.3H72.3V7.9a7.151,7.151,0,0,0-1.9-5.2,6.634,6.634,0,0,0-5-2,6.671,6.671,0,0,0-6.7,7v.5a6.6,6.6,0,0,0,6.9,6.3,7.973,7.973,0,0,0,3.4-.7,7.509,7.509,0,0,0,2.5-2.2Zm-5.5-6a4.069,4.069,0,0,1,2.4-.8,3.408,3.408,0,0,1,2.2.7A3.045,3.045,0,0,1,69,6H61.9A3.528,3.528,0,0,1,63.1,4.3Z"/><path class="c" d="M38.5,18.1v-.6H38v.7l.5-.1Z"/><path class="c" d="M36.6,21.9h0V17.5H35.5V18h.6v3.9c0,.6.3.9.8.9h.3v-.5h-.3C36.7,22.3,36.6,22.2,36.6,21.9Z"/><path class="c" d="M32.2,2.5a4.968,4.968,0,0,0-1.9-1.3A5.381,5.381,0,0,0,28.1.8a5.748,5.748,0,0,0-4.3,1.9A7.237,7.237,0,0,0,22,7.6a6.783,6.783,0,0,0,1.8,4.9,5.654,5.654,0,0,0,4.3,2,5.222,5.222,0,0,0,2.1-.4,6.405,6.405,0,0,0,1.9-1.3v1.4h3.3V1H32.1Zm-.8,7.9-.2.2a3.474,3.474,0,0,1-4.9-.2,4.258,4.258,0,0,1,0-5.6,3.408,3.408,0,0,1,2.5-1.1,3.631,3.631,0,0,1,2.6,1.1,3.322,3.322,0,0,1,.9,2.7A4.979,4.979,0,0,1,31.4,10.4Z"/><path class="c" d="M33.7,19h0a1.086,1.086,0,0,0-.9.4l-.3.2-.1-.4H32v3.6h.5V20l.4-.2a1.135,1.135,0,0,1,.8-.3c.5,0,.8.3.8,1v2.3H35V20.5a1.5,1.5,0,0,0-.4-1.1A.975.975,0,0,0,33.7,19Z"/><path class="c" d="M30.6,21.8h0l-.3.2a1.135,1.135,0,0,1-.8.3c-.5,0-.8-.3-.8-1V19h-.5v2.3a1.5,1.5,0,0,0,.4,1.1,1.4,1.4,0,0,0,.9.3,1.489,1.489,0,0,0,.9-.4l.3-.2.1.4h.4V18.9h-.5v2.9Z"/><path class="c" d="M43.6,19h0a.749.749,0,0,0-.5.1c-.2.1-.3.2-.5.3l-.3.2a1.1,1.1,0,0,0-1-.6,1.8,1.8,0,0,0-.9.4l-.2.2-.1-.4h-.4v3.6h.5V20l.3-.2a1.135,1.135,0,0,1,.8-.3c.4,0,.6.3.6,1v2.3h.5V20.1l.2-.2a3.552,3.552,0,0,1,.9-.4c.4,0,.6.3.6,1v2.3h.5V20.5C44.6,19.5,44.3,19,43.6,19Z"/><path class="c" d="M38.5,21.9h0V19.1H37.4v.4H38v2.3c0,.6.3.9.8.9h.3v-.5h-.3Q38.5,22.35,38.5,21.9Z"/><path class="c" d="M46.3,21.9h0V19.1H45.2v.4h.6v2.3c0,.6.3.9.8.9h.3v-.5h-.3Q46.3,22.35,46.3,21.9Z"/></g></g></svg>