<?xml version="1.0" encoding="utf-8"?>
<!-- Generator: Adobe Illustrator 26.0.3, SVG Export Plug-In . SVG Version: 6.00 Build 0)  -->
<svg version="1.1" id="icon-chat" xmlns="http://www.w3.org/2000/svg" xmlns:xlink="http://www.w3.org/1999/xlink" x="0px" y="0px"
	 viewBox="0 0 98 100" style="enable-background:new 0 0 98 100;" xml:space="preserve">
<style type="text/css">
	.st0{fill:#E10A0A;}
</style>
<path class="st0" d="M49.1,0c26.8,0,48.5,21.8,48.5,48.8c0,26.8-21.8,48.5-48.5,48.5c-4.7,0-9.1-0.6-13.5-1.8L10.9,100
	c-2.6,0.3-5-2.1-4.1-4.7l3.8-16.8C3.8,70,0.3,59.4,0.3,48.8C0.3,21.8,22.1,0,49.1,0L49.1,0z M49.1,7.4C26.2,7.4,7.7,25.9,7.7,48.8
	c0,9.7,3.2,18.8,9.4,26.2c0.9,0.9,1.2,2.4,0.9,3.5L15,91.7l20-3.5c0.6-0.3,1.2,0,1.8,0C40.9,89.4,45,90,49.1,90
	c22.6,0,41.2-18.5,41.2-41.2C90.3,25.9,71.8,7.4,49.1,7.4L49.1,7.4z"/>
</svg>
