<svg data-name="Layer 1" xmlns="http://www.w3.org/2000/svg" width="63.641" height="27.534" viewBox="0 0 63.641 27.534">
    <g data-name="Group 9343">
        <g data-name="Group 9342">
            <path data-name="Path 6354" d="M306.4 96.577a4.572 4.572 0 0 1 .291-1.594 4.49 4.49 0 0 1 .859-1.413 4.243 4.243 0 0 1 1.372-1.025 4.342 4.342 0 0 1 1.843-.374 3.94 3.94 0 0 1 2.107.541 3.406 3.406 0 0 1 1.331 1.4l-1.317.915a2.187 2.187 0 0 0-.582-.79 2.235 2.235 0 0 0-.776-.416 2.764 2.764 0 0 0-.8-.125 2.245 2.245 0 0 0-1.122.263 2.744 2.744 0 0 0-.8.679 2.9 2.9 0 0 0-.485.943 3.857 3.857 0 0 0-.153 1.053 3.393 3.393 0 0 0 .181 1.122 3.206 3.206 0 0 0 .527.957 2.536 2.536 0 0 0 .818.665 2.222 2.222 0 0 0 1.053.249 2.488 2.488 0 0 0 .832-.139 2.748 2.748 0 0 0 .79-.43 1.9 1.9 0 0 0 .555-.776l1.413.8a2.609 2.609 0 0 1-.86 1.123 4.048 4.048 0 0 1-1.331.693 4.826 4.826 0 0 1-1.455.235 3.8 3.8 0 0 1-1.733-.388 4.361 4.361 0 0 1-1.358-1.053 4.975 4.975 0 0 1-.887-1.469 4.9 4.9 0 0 1-.3-1.65z" transform="translate(-275.979 -82.972)" style="fill:#dc1f26"/>
            <path data-name="Path 6355" d="M393.752 122.45a3.6 3.6 0 0 1-1.427-.263 3 3 0 0 1-1.081-.734 3.322 3.322 0 0 1-.679-1.067 3.575 3.575 0 0 1 0-2.551 3.2 3.2 0 0 1 .679-1.067 2.984 2.984 0 0 1 1.081-.734 4 4 0 0 1 2.854 0 3.242 3.242 0 0 1 1.081.734 3.1 3.1 0 0 1 .679 1.067 3.576 3.576 0 0 1 0 2.551 3.179 3.179 0 0 1-1.76 1.8 3.584 3.584 0 0 1-1.427.264zm-1.7-3.34a2.121 2.121 0 0 0 .221 1 1.7 1.7 0 0 0 .609.679 1.6 1.6 0 0 0 .873.249 1.563 1.563 0 0 0 .86-.249 1.964 1.964 0 0 0 .623-.679 2.114 2.114 0 0 0 .235-1 2.069 2.069 0 0 0-.235-.984 1.643 1.643 0 0 0-.623-.679 1.553 1.553 0 0 0-.86-.249 1.609 1.609 0 0 0-.873.249 1.8 1.8 0 0 0-.609.679 2.027 2.027 0 0 0-.225.984z" transform="translate(-351.579 -104.23)" style="fill:#dc1f26"/>
            <path data-name="Path 6356" d="m460.882 123.082-2.412-6.472h1.73l1.649 4.961 1.664-4.961h1.58l-2.4 6.472h-1.815z" transform="translate(-412.956 -104.986)" style="fill:#dc1f26"/>
            <path data-name="Path 6357" d="M527.966 122.567a3.528 3.528 0 0 1-1.413-.263 3.15 3.15 0 0 1-1.081-.721 3.3 3.3 0 0 1-.693-1.053 3.245 3.245 0 0 1-.249-1.261 3.519 3.519 0 0 1 .416-1.691 3.141 3.141 0 0 1 1.192-1.22 3.569 3.569 0 0 1 1.843-.458 3.479 3.479 0 0 1 1.829.458 3.065 3.065 0 0 1 1.164 1.22 3.528 3.528 0 0 1 .4 1.636 2.337 2.337 0 0 1-.014.3c-.014.1-.014.194-.028.249h-5.042a1.722 1.722 0 0 0 .291.846 1.6 1.6 0 0 0 .623.555 1.818 1.818 0 0 0 .818.194 1.89 1.89 0 0 0 .943-.249 1.349 1.349 0 0 0 .609-.637l1.427.4a2.779 2.779 0 0 1-.679.887 3.19 3.19 0 0 1-1.039.609 4.3 4.3 0 0 1-1.317.195zm-1.705-3.867h3.409a1.865 1.865 0 0 0-.277-.846 1.56 1.56 0 0 0-.609-.555 1.67 1.67 0 0 0-.832-.194 1.787 1.787 0 0 0-.818.194 1.632 1.632 0 0 0-.6.555 1.963 1.963 0 0 0-.277.846z" transform="translate(-472.46 -104.347)" style="fill:#dc1f26"/>
            <path data-name="Path 6358" d="M605.9 116.617a3.056 3.056 0 0 0-1.357.291 1.759 1.759 0 0 0-.86.846v3.95h-1.663v-6.472h1.525v1.331a2.9 2.9 0 0 1 .887-1.053 2.139 2.139 0 0 1 1.137-.43h.207a.308.308 0 0 1 .125.014v1.524z" transform="translate(-542.259 -103.608)" style="fill:#dc1f26"/>
        </g>
        <path data-name="Path 6359" d="M8.886 8.245v.028a.014.014 0 0 1 .014.014c-.014 0-.014.014-.014.028s.014.014.014.028h-.014v.014a.04.04 0 0 0-.014.028.051.051 0 0 1-.014.042l-.042.042a.012.012 0 0 1-.014.014h-.013v.028a.012.012 0 0 1-.014.014.043.043 0 0 0-.014.028c-.014 0-.028.028-.028.028l-.028.028c-.014 0-.028 0-.028.014s.014.028 0 .042a.014.014 0 0 0-.014.014.014.014 0 0 1-.014.014c-.014.014-.028.042-.056.042a.04.04 0 0 0-.028.014c-.014.014-.028.014-.014.028a.012.012 0 0 0-.014.014c-.012.009-.037.009-.037.024a.554.554 0 0 0-.056.042c-.014 0-.014.014-.014.028a.049.049 0 0 1-.03.015v.014c-.014 0-.014.014-.028.014a.051.051 0 0 0-.042.014.014.014 0 0 1-.014.014H8.3c-.014 0-.014.014-.028.014s-.014.014-.028.014h-.011L8.219 9a.04.04 0 0 0-.028.014c-.014 0-.014.014-.014.028s-.069 0-.056.028c-.014 0-.028.014-.042.014s-.028.014-.014.028h-.027v-.019c-.014 0-.028.014-.042.014a.014.014 0 0 1-.014.014h-.027c-.014 0-.028.014-.042.014s-.028-.014-.042-.014v-.014a.012.012 0 0 0-.014.014h-.069c-.014 0-.028.014-.042.014l-.014-.014.014-.014a.051.051 0 0 0-.046-.014h-.023a.012.012 0 0 1-.014-.014c-.014-.014-.028-.014-.028-.028S7.621 9.023 7.621 9l-.028-.014c-.014-.014 0-.028-.014-.028v.014h-.013v-.018c0-.014-.014-.042-.014-.056v-.041a.014.014 0 0 0-.014-.014.04.04 0 0 1 .014-.028v-.042a.014.014 0 0 1-.014-.014c0-.014-.014-.014 0-.028s.014-.028 0-.056V8.62l.014-.014a.043.043 0 0 1 .014-.028c0-.014.014-.028.014-.042V8.5a.014.014 0 0 0 .014-.014v-.018c0-.014.014-.014.014-.028a.04.04 0 0 0 .014-.028.051.051 0 0 0 .014-.042v-.041s.028-.014.028-.028l.028-.028a.348.348 0 0 1 .056-.1l.042-.042.042-.042c.014-.028.028-.028.056-.042s.042-.028.056-.042.069-.056.1-.083.028-.014.042-.028.028-.014.042-.028a.105.105 0 0 1 .056-.028c.014-.014.028 0 .042-.014s.028-.014.042-.014.042-.028.069-.028h.042v-.009H8.4c.014 0 .028-.014.042-.014h.042c.028 0 .042-.014.069 0a.014.014 0 0 0 .014.014c.014 0 0-.014.014-.014s.028 0 .028.014h.014l.014.014a.04.04 0 0 0 .028.014v.014c.028-.014.028.014.028.028s.014.014.014.028V7.9l.014.014v.026a.04.04 0 0 0 .014.028c.014.014 0 .014 0 .028.028.014.028.028.028.042s.014.042.028.042v.028c0 .028.014.056 0 .083.1.042.1.056.1.056M4.631 19.6a.051.051 0 0 0 .014-.042c.014-.014 0-.028.014-.056l.014-.014v-.028a.105.105 0 0 1 .014-.056.014.014 0 0 1 .014-.014v-.028c0-.014.014-.028.014-.042v-.056c0-.028.014-.056.014-.083a.012.012 0 0 1 .014-.014c0-.014-.014 0-.014-.014v-.028a.051.051 0 0 1 .014-.042.026.026 0 0 0 0-.042v-.056a.014.014 0 0 1 .014-.014c.014-.014 0-.014 0-.028V18.9a.051.051 0 0 1 .014-.042c0-.014.014-.028 0-.056v-.082c0-.014.014-.028.014-.056v-.111a.051.051 0 0 1 .014-.042.084.084 0 0 1 .014-.056v-.083a.014.014 0 0 1 .014-.014v-.181a.014.014 0 0 1 .014-.014v-.028a.012.012 0 0 1 .014-.014.014.014 0 0 1-.014-.014v-.083A.04.04 0 0 1 4.853 18v-.03c0-.014.014 0 .014-.014v-.111c0-.014.014-.028 0-.042s0-.028.014-.042v-.07a.051.051 0 0 1 .019-.041v-.069c0-.014.014-.042 0-.056v-.014a.012.012 0 0 1 .014-.014v-.083c-.014 0 0-.014 0-.028v-.056l.014-.014V17.175a.012.012 0 0 1 .014-.014c.014-.014 0-.028 0-.056v-.042c0-.014 0-.042.014-.042.014-.014 0-.028 0-.042v-.259s.014-.014 0-.014a.051.051 0 0 1 .014-.042c.014-.014 0-.042 0-.056v-.1h.014a.014.014 0 0 0-.014-.014l.014-.014v-.153c0-.014.014-.042.014-.056v-.111l.014-.014v-.028a.084.084 0 0 1 .014-.056V16h.014c0-.014 0 0-.014-.014v.083c0-.014.014-.028.014-.042v-.057c0-.014.014-.028 0-.042v-.111s-.014-.014 0-.014h.014c-.014-.014 0-.028 0-.042v-.111c0-.014.014-.028.014-.042v-.1a.014.014 0 0 1 .014-.014v-.024a.014.014 0 0 0 .014-.014v-.042H5.1v-.042a.014.014 0 0 0 .014-.014v-.1s-.014 0 0-.014h.014v-.024c-.014 0 .014-.028.014-.014s-.014 0 0 .014h.042a.014.014 0 0 0 .014-.014v-.028c0-.014.028-.014.028-.028a.014.014 0 0 0-.014-.014c0-.014 0 0-.014-.014v-.014a.014.014 0 0 1-.014-.014c0-.014 0-.014-.014-.014s-.014 0-.028-.014-.014-.014-.014-.042V15a.012.012 0 0 1 .014-.014v-.014s-.014-.014 0-.014.014-.014.014-.028v-.014c0-.014.014-.028.014-.042s.014-.028.014-.042v-.1c0-.014.014-.028.014-.042v-.083a.012.012 0 0 1 .014-.014v-.028c0-.014-.014-.028-.014-.042V14.5l.014-.014v-.028c0-.014.028-.014.028-.042V14.4a.014.014 0 0 0 .014-.014c0-.014 0-.028.014-.028h.014v-.014l.018-.014c.014 0 .028 0 .028-.014a.051.051 0 0 1 .014-.042c0-.014.014-.014.014-.028s-.014-.028 0-.042v-.042h.014v-.012h.014a.014.014 0 0 0 .014-.014c.014-.014 0-.028 0-.042v-.042c0-.014 0-.028.014-.028l.014-.014v-.042l-.014-.014c0-.014.014-.014.014-.028v-.084c-.014-.014-.014 0-.028.014a.049.049 0 0 1-.028-.014.026.026 0 0 1 0-.042v-.042h.014c0-.014.014-.028 0-.042v-.1l.014-.014v-.083a.014.014 0 0 0 .014-.014v-.069a.012.012 0 0 1 .014-.014c.014-.014 0-.028 0-.042v-.042h.014a.014.014 0 0 1 .014-.014v-.181a.012.012 0 0 1 .014-.014h.014c.014-.014-.028-.014-.028-.028v-.021s.014-.014 0-.014a.012.012 0 0 0-.014-.014l-.014-.014v-.056a.03.03 0 0 1 .028-.028.014.014 0 0 1 .014-.014h.014v-.014c.014-.014.014-.056.014-.083V12.8a.014.014 0 0 1-.014-.014c0-.014 0-.028.014-.028v-.042a.049.049 0 0 0 .014-.028c0-.014-.014-.014-.014-.028a.051.051 0 0 1 .014-.042c.014-.014 0-.014-.014-.042a.106.106 0 0 1 .028-.069.051.051 0 0 0 .014-.042v-.014h.014v-.083a.04.04 0 0 1 .014-.028v-.04l.014-.014V12.2a.012.012 0 0 1 .014-.014v-.042c0-.014.014 0 .014 0h.014v-.014c0-.014.014 0 .014-.014a.014.014 0 0 1 .014-.014h.014a.051.051 0 0 0 .014-.042v-.014a.014.014 0 0 1 .014-.014v-.056c0-.014.014-.028.014-.056v-.083a.014.014 0 0 0-.014-.014v-.014a.014.014 0 0 0-.014-.014v-.028a.689.689 0 0 1 .042-.181v-.042a.014.014 0 0 1 .014-.014h.028c.028 0 .028-.014.028-.028a.051.051 0 0 0 .014-.042c0-.014.014-.028 0-.042a.014.014 0 0 1-.014-.014h-.02V11.4c0-.014.014-.014.028-.028s.014-.028.014-.042a1145.244 1145.244 0 0 1-.028-.028.051.051 0 0 1 .016-.042.04.04 0 0 0 .014-.028V11.2c0-.014-.014-.014-.014-.028a4267.978 4267.978 0 0 1 .028-.083c.014-.014 0-.028.014-.042s.014-.042.014-.056.014-.014.014-.028v-.014c0-.014.014-.014.014-.028v-.111a.012.012 0 0 1 .016-.01v-.028a.051.051 0 0 1 .014-.042c0-.014.014-.028.014-.042v-.125a.049.049 0 0 1 .014-.028c0-.014.014-.028.014-.042v-.053a.014.014 0 0 0 .014-.014v-.056c0-.014.014-.028.014-.042s.014-.056.028-.083.014-.028.014-.042 0-.042.014-.028a.014.014 0 0 0-.014-.014.014.014 0 0 0 0-.028.014.014 0 0 1 .014-.014v-.069c0-.014.014-.014 0-.014v-.028A.014.014 0 0 1 6.048 10v-.033a.051.051 0 0 1 .014-.042.014.014 0 0 1 .014-.014v-.055h.014v-.083a.012.012 0 0 0 .01-.014v-.07a.014.014 0 0 1 .014-.014v-.013l.014-.014c-.014 0 0-.014 0-.014V9.62c0-.014.014-.028.014-.042a1280.353 1280.353 0 0 1 .028-.083.014.014 0 0 0 .014-.014v-.028a.04.04 0 0 1 .016-.028v-.013a.012.012 0 0 1 .015-.012v-.03a.04.04 0 0 1 .014-.028.014.014 0 0 0 .014-.014v-.014c0-.014 0-.028.014-.028a.012.012 0 0 1 .014-.014.014.014 0 0 1 .014-.014H6.3v-.041a.03.03 0 0 1 .028-.028c0-.014 0-.028.014-.028v-.027c.014-.028 0-.056.014-.069l.028-.028c.014-.014.014-.028.014-.042a.051.051 0 0 1 .014-.042c.014-.014.042-.028.056-.042V8.9a.014.014 0 0 1 .014-.014v-.072c0-.014.014-.028.028-.042v-.041a.051.051 0 0 0 .014-.042 1600.477 1600.477 0 0 1 .028-.083c0-.014.014-.028.028-.042s.014-.028.028-.028h.028l.014-.014c.014 0 .014-.014.028-.028a.014.014 0 0 1 .014-.014v-.027a.014.014 0 0 1 .008-.014.012.012 0 0 1 .014-.014c0-.014.014-.014.014-.028s.014-.014.014-.028v-.013c0-.014.014-.014.014-.042s-.014-.028 0-.042.014-.028.014-.042 0-.014-.014-.014a.049.049 0 0 1-.014-.028.051.051 0 0 1 .014-.042v-.1c0-.014.014-.028.014-.042v-.065a.012.012 0 0 1 .014-.014V7.9c0-.014-.014-.014 0-.014l.016-.017a.043.043 0 0 1 .014-.028c0-.014.014-.028 0-.042v-.041c0-.014.014-.014.028-.028s0-.014-.014-.028v-.041c0-.042.028-.056.042-.1a.678.678 0 0 0 .042-.1c.014-.042.042-.056.042-.1v-.034a.072.072 0 0 1 .028-.056c.014-.028.014-.056.028-.083a.051.051 0 0 1 .014-.042v-.055c0-.014.014-.028.014-.042v-.027c0-.014.014-.014.028-.014a.162.162 0 0 0 .028-.042.2.2 0 0 1 .028-.083c.014-.014.014 0 .028-.014a.04.04 0 0 0 .014-.028.04.04 0 0 1 .014-.028l-.042-.042c0-.014-.014-.042 0-.056a.012.012 0 0 1 .01-.015.043.043 0 0 1 .014-.028c.014-.014.014-.028.028-.042s0-.042.014-.056v-.025l.014-.014c0-.014.014-.014.028-.028a.043.043 0 0 0 .014-.028v-.027a.014.014 0 0 0-.014-.014c0-.014 0-.042.014-.042s.028-.028.028-.042.028-.042 0-.042a.051.051 0 0 1 .014-.041c0-.014.014-.014.014-.028s0 0 .014-.014 0-.014 0-.014a.014.014 0 0 1-.015-.015.084.084 0 0 1 .014-.056.072.072 0 0 1 .028-.056v-.053a.105.105 0 0 1 .014-.056c0-.014.014-.028.014-.042S7.4 5.91 7.41 5.9s.028-.028.014-.042v-.031l.014-.014v-.028a.04.04 0 0 1 .014-.028.014.014 0 0 1 .014-.014v-.028a.014.014 0 0 0-.014-.015c0-.014.014-.014.014-.028a.043.043 0 0 1 .014-.028.014.014 0 0 0 .014-.014V5.6a.012.012 0 0 1 .014-.014l.014-.014v-.107c0-.014.014-.014.014-.028V5.41a.014.014 0 0 1 .013-.01v-.046c0-.014.014-.014.014-.028a.014.014 0 0 1 .014-.014c0-.014.014-.028.014-.042a.014.014 0 0 1 .009-.013h.014V5.146a.012.012 0 0 0 .014-.014v-.083l.014-.014a.057.057 0 0 0 .014-.042v-.028c0-.014.014-.028.014-.042V4.84a.049.049 0 0 1 .014-.028L7.7 4.8l.014-.028v-.029c0-.014.014-.028.014-.042s.028-.028.014-.042c.014-.042.056-.056.056-.1a.105.105 0 0 1 .028-.056.049.049 0 0 0 .014-.028c0-.014-.014-.014-.014-.028s.028-.042.042-.042a.084.084 0 0 0 .014-.056c0-.014.014-.014.014-.028l.014-.014a.014.014 0 0 0 .014-.007v-.016a.014.014 0 0 0 .014-.014v-.041a.049.049 0 0 1 .014-.029c0-.014-.014-.014-.014-.028v-.041c0-.014.028-.014 0-.028a.105.105 0 0 1 .028-.056c.014-.014.014-.042.028-.056s.014-.042.028-.069.014-.014.014-.028a.051.051 0 0 1 .014-.042c.014-.028.028-.042.028-.069V3.77a.014.014 0 0 0 .014-.014c.014-.014 0-.028 0-.042.028 0 .014-.028.028-.028v-.013c0-.014.014 0 .014-.014s.014-.042.028-.056.014 0 .014-.014v-.013c0-.014.014 0 .014-.014v-.014c0-.014 0-.042.014-.042v-.014c.014 0 .042-.083.042-.1.028-.056.056-.125.083-.181a.224.224 0 0 1 .056-.1h-.016a.049.049 0 0 1 .014-.028.04.04 0 0 0 .017-.021.105.105 0 0 1 .028-.056.014.014 0 0 1 .014-.014l.014-.014c0-.014 0-.028.014-.028.014-.028.014-.042.028-.056a.3.3 0 0 1 .042-.069.014.014 0 0 1 .014-.014V2.8c0-.014.014-.028.014-.042v-.016a.014.014 0 0 0 .014-.014.043.043 0 0 0 .009-.028.051.051 0 0 1 .009-.041c.014-.014.014-.028.028-.056a.04.04 0 0 1 .014-.028c0-.014.014-.028.028-.056s.014-.042.028-.056.014-.014.028-.014a.04.04 0 0 1 .028-.014c0-.014 0-.1.028-.069a.051.051 0 0 1 .018-.041c0-.014.014-.014.028-.014-.028-.014 0-.042.028-.056a.014.014 0 0 0 .014-.014v-.027c0-.014.028-.028.028-.042s.014-.042.028-.042a.04.04 0 0 0 .012-.03.072.072 0 0 1 .028-.056.6.6 0 0 1 .083-.1l.014-.014h.014l.014-.028a.049.049 0 0 1 .014-.028l.028-.028c0-.014.014-.014.028-.028s.014-.028.028-.042l.028-.028.028-.014a.012.012 0 0 1 .014-.014v-.006l.013-.014.014-.014a.012.012 0 0 1 .014-.014.014.014 0 0 0 .014-.014v-.014a.043.043 0 0 0 .028-.014.014.014 0 0 1 .014-.014.014.014 0 0 0 .013-.016v-.011c.014-.014.028-.028.028-.042h.042c.014 0 0-.028.014-.028a.014.014 0 0 0 .014-.014l.014-.014v-.013c0-.014-.014 0 0-.014l.014-.014a.014.014 0 0 1 .014.014.012.012 0 0 1-.014.014v.014a.014.014 0 0 0 .014.014c0 .014.028 0 .028-.014a.014.014 0 0 1 .014-.014l.014-.014a.019.019 0 0 0 0-.028v-.028c0-.014.014 0 .028-.014v-.028a.012.012 0 0 1 .014.014s-.014.014 0 .014h.042v-.028h.014c.014 0 0-.014 0-.014h.056v.014h.011v-.014h.014c.014 0 0 0 .014-.014l.014-.014V1.3a.014.014 0 0 1 .014-.014c.014 0 .014.014.014 0s0-.028.014-.014v-.058c0-.014-.014-.028 0-.042a.03.03 0 0 1 .028-.028h.028a.049.049 0 0 0-.014-.028.014.014 0 0 1 .013-.016l.014-.014v-.039H9.9a.014.014 0 0 1 .014-.014l.014-.014V.991l.011-.014.028-.027c0-.014.014-.028.014-.042V.894c.014 0 .014-.014.014-.028h.014V.852c0-.014.014-.028.014-.042a.051.051 0 0 1 .014-.042.012.012 0 0 1 .013-.013.014.014 0 0 1 .014-.014V.7c0-.014.014-.028.014-.042v-.07h-.014a.012.012 0 0 1-.014-.014l.014-.014V.394c0-.014-.014-.014-.014-.028v-.1c0-.014-.014-.028-.014-.042V.213c0-.014-.014-.014-.014-.028V.158c0-.014-.014-.028-.014-.042s0-.016-.014-.016V.074C9.994.06 9.98.06 9.98.032V0a.014.014 0 0 1-.014-.014v-.009c-.014-.014-.014-.042-.028-.056a.014.014 0 0 0-.014-.014l-.013-.013c-.011-.028-.042-.042-.055-.07S9.828-.19 9.828-.2a.014.014 0 0 0-.014-.014H9.8c-.014 0 0-.014-.014-.014h-.014l-.014-.017-.014-.014v-.014a.012.012 0 0 1-.014-.014V-.3H9.7a.014.014 0 0 1-.014-.014l-.025-.029a.043.043 0 0 1-.028-.014.014.014 0 0 0-.014-.013.051.051 0 0 0-.042-.014C9.564-.4 9.55-.4 9.522-.412s-.028-.014-.042-.014a.051.051 0 0 1-.041-.014H9.4a.014.014 0 0 1-.014-.014c-.014-.014-.028-.014-.042-.028h-.058c-.014 0-.042-.018-.056-.018h-.139a.049.049 0 0 0-.028-.014c-.014 0-.014.014-.028.014a.014.014 0 0 1-.014-.014.6.6 0 0 1-.069.014.125.125 0 0 0-.069.014c-.028 0-.028.014-.056.028s-.042 0-.056.014a.105.105 0 0 0-.056.028 1.393 1.393 0 0 0-.235.167c-.028.014-.042.042-.056.056a.014.014 0 0 1-.014.014h-.026a.051.051 0 0 0-.014.042q-.021 0-.042.042h-.014c0 .014-.014.014-.028.014a.051.051 0 0 0-.014.042.108.108 0 0 1-.056.056C8.2.046 8.175.06 8.161.074a.487.487 0 0 0-.069.111c-.014.028-.028.042-.028.069-.042.014-.056.083-.069.111a.494.494 0 0 0-.056.125 1.218 1.218 0 0 0-.1.235.958.958 0 0 1-.056.139.494.494 0 0 0-.052.126.5.5 0 0 1-.056.153c-.014.042-.042.1-.056.139a1.528 1.528 0 0 0-.111.263.581.581 0 0 1-.056.139.581.581 0 0 1-.056.139c-.042.083-.056.181-.1.263-.014.028-.042.056-.042.083s-.014.069-.028.111l-.083.207a3.923 3.923 0 0 0-.083.235 2.491 2.491 0 0 1-.111.291c-.014.042-.042.083-.056.125s-.028.1-.042.139a.677.677 0 0 0-.056.153c-.028.069-.042.125-.069.194l-.083.207a1.443 1.443 0 0 1-.1.263c-.083.221-.153.444-.235.665a.072.072 0 0 1-.028.056.123.123 0 0 0-.014.056c-.014.014-.028.042-.042.056S6.2 4.968 6.2 5a.591.591 0 0 0-.028.153.688.688 0 0 1-.056.181c-.014.028-.014.069-.028.1a.831.831 0 0 0-.083.194.442.442 0 0 0-.042.125c-.014.042-.014.083-.028.139-.014.028-.042.083-.028.111-.028.028-.028.1-.042.125s-.014.1-.028.139-.056.083-.056.139a.463.463 0 0 0 0 .139c0 .042-.028.042-.042.069a.288.288 0 0 0-.028.083.15.15 0 0 1-.014.083.2.2 0 0 0-.028.1c-.042.125-.069.235-.111.36l-.042.181a1.558 1.558 0 0 1-.069.181 3.615 3.615 0 0 0-.083.374.406.406 0 0 0-.028.125c0 .014.014.042 0 .056s-.028.042-.042.069a.236.236 0 0 1-.014.1.783.783 0 0 0-.056.167c-.028.125-.069.249-.1.374l-.083.291a.385.385 0 0 1-.014.125c-.014.056-.028.1-.042.153a.885.885 0 0 1-.028.1v.056c0 .014-.014.028-.028.042s0 .056-.014.083a.176.176 0 0 0-.014.083l-.042.181c-.028.1-.042.181-.069.277-.014.042-.014.1-.028.153a1.647 1.647 0 0 0-.056.277 1.42 1.42 0 0 1-.042.139.494.494 0 0 0-.028.139c0 .028-.042.1-.014.139a.187.187 0 0 0-.028.125.385.385 0 0 1-.014.125c-.014.069-.042.139-.056.207a.733.733 0 0 1-.042.167c-.014.042-.014.083-.028.125a1.073 1.073 0 0 0-.028.207c-.014.139-.056.277-.069.416a.813.813 0 0 0-.028.181 1.927 1.927 0 0 1-.056.277.258.258 0 0 1-.028.1c-.014.069-.014.139-.028.207-.028.125-.042.277-.069.388-.014.042-.014.1-.028.139-.014.181-.056.346-.069.527a1.531 1.531 0 0 0-.028.249.385.385 0 0 1-.014.125v.083c0 .014-.014.014-.014.028v.019a.7.7 0 0 1-.028.167h-.001v.056c-.014.014-.014.042-.028.042s-.028-.028-.014-.042C3.9 15 3.911 15 3.869 15.013c0-.014-.014-.028-.014-.042v-.042a.152.152 0 0 0 0-.111c0-.028-.014-.014-.014-.042s.014-.028.014-.042c0-.056-.042-.042-.069-.056 0-.014.014-.014.014-.028s-.014-.028-.014-.056v-.1c0-.028.014-.069 0-.083a.2.2 0 0 1-.028-.083c0-.028-.028-.056-.028-.083s.014-.028.014-.042-.014-.042 0-.056c.014-.042.028-.042.014-.083-.028-.083 0-.069 0-.1a.2.2 0 0 0-.028-.083l-.03-.021c-.028-.014-.014-.014-.014-.042s-.014-.014 0-.028.028 0 .028-.014H3.7c-.014 0 0 0 0 .014s-.028-.014-.028-.028.014-.014.014-.028-.014-.014 0-.028.042-.028.042-.028H3.7a.049.049 0 0 0-.028.014c0 .028-.028.014-.028 0v-.139c0-.014.014-.014.014-.028s0-.028-.014-.028a.017.017 0 0 1 0-.028.043.043 0 0 0 .014-.028c0-.014.014-.014.014-.028a.051.051 0 0 1 .014-.042c0-.014.014 0 .014-.014v-.014c0-.014.014-.014.014-.028v-.056c-.014-.014-.014-.028-.028-.042s0-.042-.014-.056l-.028-.028V13.1s-.028-.014-.014-.028-.014-.014-.014-.028A.051.051 0 0 0 3.6 13c0-.014-.014-.014-.014-.028v-.042c0-.028-.014-.056-.014-.083v-.153a.04.04 0 0 0-.014-.028c-.014-.014 0-.014 0-.028s-.014-.014-.014-.028-.014-.028-.014-.042a.1.1 0 0 0-.014-.069.017.017 0 0 0 0-.028.051.051 0 0 0-.014-.042v-.042c0-.014-.014-.014 0-.028a.051.051 0 0 0 .042-.014c.014 0 .014-.028.014-.028s-.028-.042-.042-.056a.106.106 0 0 1-.028-.069v-.056a.084.084 0 0 0-.014-.056v-.056c0-.014-.014-.028-.014-.042s0-.028-.014-.042l-.028-.028a.2.2 0 0 1-.028-.083V11.8c-.014-.014-.028 0-.028-.014s.014-.014 0-.028a.012.012 0 0 1-.014-.014v-.069c.014-.014.028-.014.014-.042s-.014-.014-.028-.014a.025.025 0 0 1-.028-.028v-.083c0-.014-.014-.028-.014-.042s0-.042.014-.056v-.028c-.014-.014-.014 0-.028-.014a.7.7 0 0 0-.028-.167.04.04 0 0 1 .014-.028c0-.014 0-.028-.014-.028a.176.176 0 0 1-.014-.083.084.084 0 0 0-.014-.056c0-.014-.014-.042-.014-.056s0-.014.014-.014.028-.014.014-.014a.043.043 0 0 1-.028-.014.014.014 0 0 1-.008-.008.04.04 0 0 1 .014-.028.012.012 0 0 0-.014-.014.042.042 0 0 1 0-.056c0-.014.014-.014 0-.028v-.014a.014.014 0 0 1-.014-.014v-.083s.014-.028 0-.014c-.014-.014 0-.014.014-.014a.012.012 0 0 0-.014-.014.043.043 0 0 0-.014-.028.045.045 0 0 1 .028-.042.012.012 0 0 0 .014-.014.014.014 0 0 0-.014-.014v-.083c0-.014-.028-.014-.014-.028s.014 0 .028-.014a.014.014 0 0 0-.014-.014l.014-.014a.014.014 0 0 0-.014-.014.051.051 0 0 1-.042-.014.042.042 0 0 1 0-.056c.014-.014.014-.014.014-.042a.012.012 0 0 0-.014-.014.014.014 0 0 1-.014-.014c0-.014-.014-.042 0-.056a.043.043 0 0 0 .028-.014c0-.014-.014-.014-.028-.014a.049.049 0 0 0-.028.014l-.016-.01a.014.014 0 0 1 .014-.014.049.049 0 0 0 .014-.028c0-.014-.014 0-.014-.014l-.014-.041c.014 0 .014.014.014 0v-.014a.014.014 0 0 0-.014-.014c-.014-.014-.014 0-.014-.014s-.014-.042-.014-.056v-.027a.049.049 0 0 0 .014-.028.105.105 0 0 0-.028-.056c-.014-.014-.014-.028-.014-.056v-.083c0-.014-.014-.014 0-.028s.014-.014 0-.014a.176.176 0 0 1-.014-.083.105.105 0 0 0-.014-.056c0-.014-.014-.042-.014-.056s-.014-.042-.014-.056v-.151c0-.014-.014-.014-.014-.028V9.15a.014.014 0 0 1-.014-.014c0-.014.014-.014 0-.014s-.014-.042-.014-.056-.014-.042-.014-.056V8.9l-.014-.014v-.07c0-.014-.014-.028-.014-.056v-.111c0-.014-.014-.042-.014-.056v-.041c0-.014 0-.028-.014-.028a.084.084 0 0 0-.014-.056v-.027a.04.04 0 0 0-.014-.028c-.014-.042-.014-.083-.028-.125v-.056c0-.014-.014-.028-.014-.056a.363.363 0 0 0-.042-.111c0-.014-.014-.014-.028-.028V8.01A.014.014 0 0 0 2.729 8a.04.04 0 0 0-.014-.028c0-.014-.014-.028-.028-.042a.012.012 0 0 0-.014-.014L2.66 7.9l-.028-.028-.032-.029c-.014-.014-.028-.014-.042-.028l-.028-.028-.023-.027a.3.3 0 0 0-.069-.042.04.04 0 0 1-.028-.018.084.084 0 0 0-.056-.014c-.014 0-.014 0-.028-.014s-.042-.014-.069-.014H2.2c-.014 0-.014-.014-.014 0h-.137c-.014 0-.042.014-.056.014s-.014 0-.028.014a.014.014 0 0 0-.014.014h-.027a.105.105 0 0 0-.056.028c-.014.014-.028.014-.042.028a.291.291 0 0 0-.083.056.139.139 0 0 1-.069.056c-.028.028-.042.069-.069.1a.563.563 0 0 0-.069.125c-.014.056-.042.1-.056.153a.051.051 0 0 1-.014.042c0 .014-.014.028-.014.042a.176.176 0 0 0-.014.083c0 .014-.014.014-.014.028s0 .014-.014.028-.01.031-.01.055-.014.014-.014.028.014.014 0 .028h-.018v.014c-.014.056-.042.111-.056.181 0 .014-.014.028-.014.042a.051.051 0 0 1-.014.042c-.014.028-.014.056-.028.069s-.014.042-.028.069a1.876 1.876 0 0 1-.083.263l-.045.083a.149.149 0 0 0-.028.083c0 .042-.014.069-.014.1a.12.12 0 0 1-.042.083.363.363 0 0 0-.042.111.677.677 0 0 0-.042.1c-.014.028 0 .042 0 .083s-.028.069-.028.1c-.014.056-.042.125-.056.181s-.042.111-.056.153l-.028.083a.2.2 0 0 0-.028.083c.014.014-.014.056-.028.083s0 .069-.014.1a.9.9 0 0 0-.056.181.462.462 0 0 1-.076.133.258.258 0 0 0-.028.1.236.236 0 0 1-.014.1.343.343 0 0 1-.056.125c-.014.014-.083.042-.042.069-.014.028-.056.042-.014.083-.014-.014-.028.056-.028.056a.176.176 0 0 1-.014.083c-.028.069-.056.139-.083.221s-.083.163-.11.241h.014a.6.6 0 0 1-.014.069.235.235 0 0 0-.028.069v.042c0 .014-.014.028-.028.042s-.014.056-.028.069a.6.6 0 0 0-.014.069.176.176 0 0 0-.014.083c-.014.042-.042.1-.056.139a1.442 1.442 0 0 1-.055.14.787.787 0 0 0-.056.3.291.291 0 0 0 .056.153.643.643 0 0 0 .194.194.363.363 0 0 0 .111.042c.028 0 .042.014.056.014h.125c.014 0 .028-.014.042-.014h.083c.014 0 .014-.014.028-.014h.027a.014.014 0 0 0 .014-.014c.014-.014.028-.014.056-.014a.249.249 0 0 0 .1-.069l.042-.042a.049.049 0 0 1 .028-.014c0-.014 0-.028.014-.028s.042.014.056 0 0-.014-.014-.028 0-.042.014-.069a.107.107 0 0 1 .024-.037.051.051 0 0 0 .014-.042c0-.014-.014-.014 0-.028s.014 0 .014-.028.014 0 .014-.028v-.042c0-.014.014-.014.028-.028v-.042c0-.028.014-.042.042-.056a.04.04 0 0 0 .014-.028c0-.014-.014-.014-.014-.028s.042-.028.056-.042a.051.051 0 0 1 .014-.042l.028-.028c0-.014-.014-.028 0-.042s.014-.028.014-.042.014-.042.028-.069.014-.028.028-.042.042 0 .042-.014-.028 0-.042-.014 0-.028 0-.042a.014.014 0 0 1 .014-.014.049.049 0 0 0 .014-.028v-.014c0-.014.014 0 .014 0v-.028h.014v-.042L1.3 12.3v-.014a.014.014 0 0 0 .014-.014c-.014 0 0-.014 0-.028s.014-.014.028-.028V12.2a.014.014 0 0 1-.014-.014v-.042c0-.014.014 0 .014-.014v-.014a.014.014 0 0 0 .014-.014s.014-.014 0-.014h-.031v-.028a.012.012 0 0 1 .014-.014v.014h.014s.014.014.014 0 .014-.014 0-.014a.014.014 0 0 1-.014-.014.014.014 0 0 0 .014-.014v-.056l.014-.014a.014.014 0 0 0 .014-.014c0-.014 0-.014-.014-.014s0-.014 0-.028a.051.051 0 0 1 .014-.042c.014-.014.014 0 .014 0v-.01c0-.014.014-.028.014-.042v-.014h.027c.014 0 .014-.014.014-.028a.014.014 0 0 1-.014-.014v-.014a.051.051 0 0 1 .014-.042h.014v-.042c.014 0 0-.014.014-.014h.014l.014-.014h.028V11.6h-.015q-.014 0 0-.014v-.014a.012.012 0 0 1 .014-.014.014.014 0 0 0 .014-.014l-.014-.014c0-.014.028-.014.042-.014s.014-.028.014-.042-.014 0-.014-.014v-.028c0-.028.014 0 .014 0v-.028s.014 0 .014-.014v-.014c0-.014.014-.028.014-.042a.014.014 0 0 1-.014.014v-.008c0-.014-.014-.014-.014-.028v-.028c.014-.014.028.014.028.014a.012.012 0 0 0 .014-.014.012.012 0 0 1 .014-.014h.028a.014.014 0 0 0 .014.014c.014 0 .014 0 .014-.014s-.028 0-.028-.014.014 0 0-.014h-.015v.014c-.014-.014 0-.014 0-.028v-.014a.014.014 0 0 0 .014-.014c-.014 0 0-.014 0-.028s.042.028.056.014v-.014a.014.014 0 0 0 .014-.014c.014-.014 0-.014 0-.028h.014l.014-.014c0-.014.014-.014 0-.028s.014-.014 0-.014H1.8v-.014l.014-.014a.012.012 0 0 1 .014-.014V10.978a.04.04 0 0 0 .014-.028v-.042c.014 0 .014-.014.028-.014h.042a.014.014 0 0 0 .014.014h.042a.014.014 0 0 1 .014.014l.014.014a.049.049 0 0 0 .014.028h.01s.014-.014.014 0-.014 0-.014.014v.056c0 .014-.014.014-.014.028l.014.014a.014.014 0 0 0 .014.014c.014.014.014-.014.028-.028s.014-.014.028-.014a.03.03 0 0 1 .028.028c0 .014 0 .028-.014.028a.014.014 0 0 0-.014.014v.069c0 .014-.028.014-.014.014s.028.014.042.028 0 0-.014.014v.014h-.015a.014.014 0 0 0-.014.014v.014c0-.014.014.014.014.014v.028c0 .014-.014.028-.014.042s.028.014.028.028v.028a.089.089 0 0 0 0 .083.03.03 0 0 0 .028.028h.014v.028l.014.014s-.014.014 0 .014h.014c.014 0 0 0 .014.014s.014.042.014.069a.072.072 0 0 1-.028.056c.014.014.028-.014.028-.028v.083c0 .014.014.014.014.028v.042a.176.176 0 0 0 .014.083.125.125 0 0 1 .014.069v.056c0 .014.014.028.014.042a30373.091 30373.091 0 0 0 .028.167v.042c0 .014.014.014.014.028a.014.014 0 0 0-.014.014v.043a.125.125 0 0 0 .014.069c0 .028.014.042.014.069a.084.084 0 0 0 .014.056c0 .014.014.028.014.056a.051.051 0 0 0 .014.042v.1a.014.014 0 0 1-.014.014v.125c0 .014-.014.028 0 .028s-.014.014-.014.028 0 .069.028.056v.028c0 .014.014.014.014.028v.042c0 .028.014.069.014.1a.125.125 0 0 0 .014.069c0 .014.014.028.014.042a.049.049 0 0 1-.014.028.051.051 0 0 1 .014.042c0 .014.014.028.014.042s.014.056.014.083a.7.7 0 0 1 .028.167v.042c0 .014.014.014.014.028v.042c0 .014.014.028.014.042a.125.125 0 0 0 .014.069.04.04 0 0 0 .014.028.176.176 0 0 1 .014.083.051.051 0 0 0 .014.042v.014a.014.014 0 0 0 .014.014v.042a.176.176 0 0 0 .014.083.051.051 0 0 0 .014.042.057.057 0 0 1 .014.042v.073c0 .014.014.014.014.028s-.014.014 0 .028v.056a.176.176 0 0 1 .014.083.176.176 0 0 0 .014.083v.1a6870819564412.5 6870819564412.5 0 0 1 .028.083v.056c0 .028.014.042.014.069v.056c0 .014.014.028.014.042v.028c0 .014.014.028.014.042v.042a.04.04 0 0 0 .014.028c0 .014-.014.014-.014.028s0 .014.014.014a.084.084 0 0 1 .014.056v.028a.012.012 0 0 0 .014.014c.014.014 0 .042 0 .056s.014.028.014.056v.042h.014v.028a.04.04 0 0 0 .014.028v.056h.014v.014c-.014 0 0 .014 0 .014v.125l.014.014v.125a.014.014 0 0 0 .014.014v.153l.014.014v.083a.012.012 0 0 0 .014.014v.028c0 .014 0 .028.014.028v.111c0 .014 0 .069.014.069v.098a.051.051 0 0 1 .014.042v.028l.014.014v.042c.014 0 .014.028.014.042a.051.051 0 0 1-.014.042.04.04 0 0 0-.014.028v.028c0 .014-.014.014-.014.028v.028c0 .014-.014.028 0 .042s.014.014.028.014a.014.014 0 0 1 .014.014c.014.014.028.028.028.042v.069a.014.014 0 0 1-.014.014c-.014.014-.014.028-.028.042l-.014.014a.014.014 0 0 0-.014.014c0 .014.014 0 0 .014a.014.014 0 0 0-.014.014.012.012 0 0 0 .013-.029h.056a.014.014 0 0 1 .014.014.014.014 0 0 0 .014.014c0 .014.014.028.014.042v.042c0 .014.014.028.014.042a.051.051 0 0 0 .014.042.043.043 0 0 0 .014.028v.111a.014.014 0 0 0-.014.014.049.049 0 0 1 .014.028.014.014 0 0 0 .014.014c0 .014.014.014.014.028v.028c0 .014.014.014.014.028v.014a.014.014 0 0 0 .014.014v.111a.014.014 0 0 1-.014.014c-.014.014-.014.042 0 .042a.014.014 0 0 1 .014.014c0 .014 0 .014.014.028a.051.051 0 0 1 .014.042v.083l.014.014c0 .028 0 .042.014.056s.014.042.014.056v.111h.014v.069q-.014 0 0 .014l.014.014v.028a.012.012 0 0 0 .014.014.151.151 0 0 1 .014.069.6.6 0 0 0 .014.069v.083c.014.014 0 .028 0 .042v.083a.012.012 0 0 0 .014.014c0 .014.014.028.014.056a.084.084 0 0 0 .014.056c-.014.014 0 .014 0 .014v.042a.049.049 0 0 0 .014.028v.028c0 .014 0 0 .014.014a.014.014 0 0 0-.014.014v.069c-.014.014.014.014.014.028v.014h.014v.028a.051.051 0 0 0 .014.042c0 .014.014.014 0 .014s-.014.014 0 .014.014.028.014.028.014.014.014.028v.014a.014.014 0 1 0 0 .028v.069c0 .014.014.014.014.028v.083a.012.012 0 0 0 .014.014.051.051 0 0 1 .014.042v.028a.049.049 0 0 1 .014.028v.028c0 .014.014.028.014.042v.028c.014.014 0 0 0 .014s.014.028.014.042v.028c0 .014 0 .028.014.028a.012.012 0 0 0 .014.014c.014 0 0 .014.014.028a.051.051 0 0 1 .014.042l.014.014c.014.014.014.028.028.042l.014.014v.014h.014a.014.014 0 0 0 .014.014l.014.014c0 .014.014.014.028.014a.043.043 0 0 1 .028.014v.014a.014.014 0 0 1 .003.008.051.051 0 0 1 .042.014c.014.014.028.014.056.028h.028c.014.014.028 0 .042.014s.028.014.056.014a.04.04 0 0 0 .028-.014h.083a.04.04 0 0 0 .028-.014h.028a.084.084 0 0 0 .056-.014L4.187 20c-.014 0-.014-.014 0-.014h.028a.014.014 0 0 1 .014-.014c.014 0 .014 0 .028-.014a.043.043 0 0 0 .028-.014l.014-.014c.014-.014.028-.014.042-.028a.03.03 0 0 0 .028-.028.014.014 0 0 1 .014-.014l.014-.014c.014 0 .014-.014.014-.028a.014.014 0 0 0 .014-.014.014.014 0 0 1 .014-.014c0-.014.014-.014.014-.028a.014.014 0 0 1 .014-.014v-.014l.014-.014c.152-.124.152-.138.152-.152m-2.164 6.473-.651-1.261h-.457V27h.43v-1.472l.569 1.095h.235l.569-1.095V27h.43v-2.221h-.459l-.665 1.262zm5.919-14.955c-.042 0-.042-.042-.069-.069s-.014-.083.014-.083v-.014a.04.04 0 0 1-.014-.028c0-.014-.014-.042-.014-.056-.014-.042-.014-.069-.028-.111a.192.192 0 0 0-.042-.056c-.042-.028-.042-.056-.056-.056s-.042-.014-.056-.014-.056-.014-.083-.014a.591.591 0 0 0-.153.028.828.828 0 0 0-.249.125c-.028.014-.042.042-.069.056s-.056.014-.069.042a.014.014 0 0 0 .014.014.051.051 0 0 0-.042.014c-.014 0-.014.014-.028.028l-.056.056c-.042.014-.069.069-.083.1l-.083.125c-.042.083-.069.167-.111.263-.014.028-.028.069-.042.1s0 .111-.028.111v.014c.028.056 0 .1-.014.139a.676.676 0 0 0-.014.167c0 .069-.014.125-.014.181a.591.591 0 0 1-.028.153c0 .028-.028.167 0 .181 0 .028-.014.028-.014.056s.014.056.014.069a.473.473 0 0 1-.014.139.125.125 0 0 1-.014.069v.056a1.033 1.033 0 0 1-.028.291c.014.014 0 .069 0 .1a.3.3 0 0 0 0 .111c-.014.042 0 .083-.014.111-.069-.042-.014.083-.014.111s-.014.042-.014.069.014.042.014.083a.591.591 0 0 1-.028.153c-.014.056-.014.1-.028.153v.028h.014v.119c0 .1-.014.181-.014.277a.176.176 0 0 1-.014.083v.221c0 .056-.014.1-.014.153v.332c0 .028.014.083 0 .1.028.028 0 .042 0 .069a.235.235 0 0 0 .028.069.125.125 0 0 1 .014.069c0 .028.028.042.028.056l.028.028a.04.04 0 0 0 .028.014c.028 0 .042.014.069.028a.275.275 0 0 0 .153.028h.042c.014 0 .014-.014.042-.014a.176.176 0 0 0 .083-.014c.014 0 .014-.014.028-.028s.014-.014.028-.014.042-.014.069-.028a.6.6 0 0 0 .1-.056c.014-.014.042-.028.056-.042s.028-.028.056-.042.042-.028.056-.042.069-.056.1-.083.014-.056.042-.042.056.014.069 0 0-.056.028-.083q0 .021.042.042h.028c.014 0 .014-.014.014-.028s.014-.042.014-.056c0-.056-.042-.028-.069-.028s-.014.014-.014-.014V15.1L8 15.013c.014-.028 0-.056 0-.083s.014-.014.014-.028v-.042a.176.176 0 0 1 .014-.083c0-.014.014-.028.014-.042s-.014-.014-.014-.028c.014 0 .014-.028.014-.042s.014-.028.014-.056a.105.105 0 0 1 .014-.056c0-.014.028-.042 0-.042-.014-.028.014-.1-.028-.125a.092.092 0 0 0 .014-.083.051.051 0 0 0-.014-.042c0-.014-.014 0 0-.014s.014-.028.014-.042.014-.014.014-.028v-.137a.04.04 0 0 1 .014-.028.051.051 0 0 1 .014-.042v-.083a.051.051 0 0 1 .014-.042V13.8c0-.028.014-.056.014-.083s.014-.042.014-.069v-.083c0-.028.028-.042.028-.069s-.014-.069 0-.083h.012v-.042a.049.049 0 0 1 .014-.028.125.125 0 0 0 .014-.069v-.164c0-.028-.014-.056 0-.083l.014-.014a.271.271 0 0 0 .014-.111v-.042c0-.014.028-.014.028-.028v-.222c0-.028.014-.042.014-.069 0-.056-.014-.111-.014-.153v-.069c0-.014.028-.042.028-.056a.6.6 0 0 1 .014-.069c0-.014.014-.056.014-.069s-.014-.042 0-.083c0-.014.014-.014.014-.028v-.044a.229.229 0 0 1 .014-.069.176.176 0 0 0 .014-.083v-.028c0-.014-.014-.014-.014-.028a.084.084 0 0 1 .014-.056.463.463 0 0 1 .042-.083c0-.014.014-.042.014-.056s-.028-.028-.028-.056 0-.056.014-.069.028-.028.028-.042-.014 0-.014-.014a.105.105 0 0 1-.028-.056.2.2 0 0 1-.028-.1c0-.028 0-.083.014-.1-.042-.056.014-.028.014-.056m1.8-1.506c.014-.014 0-.014-.014-.014-.028.014-.069.014-.1.028a.678.678 0 0 1-.1.042c-.014 0-.014.014-.028.014a.051.051 0 0 1-.042.014.049.049 0 0 0-.028.014c-.014 0-.028.014-.042.014l-.028.028c-.014 0-.014.014-.028.014h-.008l-.014.014a.7.7 0 0 0-.111.1l-.056.056c-.014.014-.028.042-.042.056a.014.014 0 0 1-.014.014.014.014 0 0 0-.014.014.04.04 0 0 0-.014.028c-.014.028-.014.042-.028.056s-.014.056-.028.083-.028.042-.028.069-.014.028 0 .042c-.014.014-.014.042-.028.069a.258.258 0 0 1-.028.1c-.014.056-.014.111-.028.167a.473.473 0 0 1-.014.139v.111a.049.049 0 0 1-.014.028c.014 0 .014.028.014.042v.056c0 .042-.014.1-.014.139s-.014.1-.014.153v.083c0 .028-.014.056-.014.083v.249a.176.176 0 0 1-.014.083c0 .028-.014.056-.014.1v.042c0 .014-.014.028 0 .028a.084.084 0 0 0-.014.056v.111c0 .014-.014.014-.014.028s-.014.056-.028.083c-.028 0-.028.069 0 .069 0 .014.014.028 0 .042.014.014-.014.042 0 .042s-.028.111 0 .1v.042l-.028.028c0 .014.014.028.014.042s-.014.056 0 .069.014.014.014.028v.014a.012.012 0 0 1-.014.014.051.051 0 0 1-.014.042.049.049 0 0 1-.014.028v.125c0 .014-.014.028-.014.042s0 .014.014.028 0 .028.014.028a.089.089 0 0 1 0 .083c0 .028.014.042-.014.069s0 .014 0 .028.014.042.014.056-.014.056-.014.083v.083c0 .028-.028.042-.028.069v.042c0 .014-.014.014 0 .028s.014.028.014.042v.458c0 .014.014.014.014.028v.042c0 .014.014.014.014.028v.014a.014.014 0 0 1 .014.014v.028c0 .014.014.014.014.028l.028.028.014.014.014.014v.014h.014a.014.014 0 0 0 .014.014H9.3v.028c.014 0 .028.014.042.014s.028.014.042.014h.156l.014-.014h.042c.028 0 .042-.014.069-.028a.084.084 0 0 0 .056-.014h.028c0-.014.056-.014.069-.028s.042-.028.056-.042.014-.014.028-.014h.014l.014-.014h.014a.014.014 0 0 1 .014-.014c.014 0 .014 0 .028-.014s.014-.014.028-.014.014-.014.028-.014.014-.014.028-.014.014-.014.028-.014h.042c.014 0 0-.028.014-.028s.014-.014.014-.028c.028-.028.056-.042.069-.069a.04.04 0 0 0 .014-.028c0-.014.014-.014.028-.028a.3.3 0 0 0 .042-.069.192.192 0 0 1 .042-.056c.014-.014.014-.042.028-.056s.014-.056.028-.056v-.028a.04.04 0 0 1 .014-.028c0-.014.014-.028.014-.056s.014-.069.014-.1a.176.176 0 0 1 .014-.083v-.125a.04.04 0 0 1 .014-.028v-.083c.014 0 .028-.028.028-.042v-.056c0-.014-.014-.042-.014-.056a.014.014 0 0 1 .014-.014c.014-.014 0-.014-.014-.014v-.291c0-.014.014-.028.014-.042s-.028-.028 0-.028v-.332a.051.051 0 0 1 .014-.042c-.014 0-.014-.028-.014-.042.028 0 .014-.042.014-.056v-.083c0-.028.028-.042.028-.056s-.014-.014-.014-.028v-.111c0-.028.014-.042.014-.069h-.014l.014-.014a.014.014 0 0 1-.014-.014h.014v-.042c0-.014.014-.028.014-.042a.026.026 0 0 1 0-.042.04.04 0 0 1 .014-.028.014.014 0 0 1 .014-.014c.028-.014.014-.042-.014-.042 0-.014.028-.014.028-.014s0-.014.028-.014h.014l.014-.014a.049.049 0 0 0-.014-.028v-.042c0-.014-.014-.028 0-.042a.049.049 0 0 1 .014-.028v-.041c0-.014.028-.028.042-.042s0-.014 0-.042v-.042a.051.051 0 0 1 .014-.042c.014-.014.014 0 .028-.014s-.028-.014-.028-.014a.051.051 0 0 1 .014-.042c.014-.014.042-.014.056-.042a.057.057 0 0 1-.014-.042.123.123 0 0 1 .014-.056c0-.014.014-.028.028-.042s.014-.042.028-.042 0-.028.014-.028a.03.03 0 0 1 .028-.028.3.3 0 0 0 .042-.069c.014-.014.028-.042.042-.056s.028-.042.042-.056a.3.3 0 0 0 .042-.069c.014-.014.028-.014.028-.028s0-.014.014-.014h.028c.014 0 .014-.014.028-.014l.028-.028a.012.012 0 0 0 .014-.014.012.012 0 0 1 .014-.014h.028a.014.014 0 0 1 .014-.014.014.014 0 0 0 .014-.014.043.043 0 0 0 .028-.014c.014-.014.028-.014.042-.028a.044.044 0 0 0 .042-.042.105.105 0 0 0 .056-.028c.014-.014.042-.028.056-.042l.028-.028.014-.014a.014.014 0 0 0 .014-.014c.014 0 .014-.014.028-.028a.043.043 0 0 1 .028-.014c.014-.014.042-.028.056-.042l.042-.042H11.7l.014-.014a.04.04 0 0 0 .028-.014c.028-.014.042-.083.083-.083.014-.014.014-.042.028-.056s.014-.014.014-.028a.04.04 0 0 1 .028-.014.049.049 0 0 1 .014-.028c0-.014.014-.014.014-.028a.125.125 0 0 0 .014-.069c-.028 0 0-.069 0-.083v-.034c0-.014.014-.028.014-.042s-.014-.028-.014-.028.014-.014.014-.028a.049.049 0 0 0-.014-.028l-.014-.014v-.013h-.014v-.014c0-.014-.014 0-.014-.014s-.014-.014-.014-.028v-.014a.014.014 0 0 0-.014-.014v-.041l-.028-.028a.04.04 0 0 1-.014-.028l-.01-.011v-.017l-.028-.028c-.014-.028-.028-.028-.042-.042s-.014-.014-.028-.014a.051.051 0 0 1-.042-.014.176.176 0 0 0-.083-.014h-.083a.051.051 0 0 0-.042.014c-.014 0-.028.014-.042.014s-.014 0-.028.014h-.027v.014c-.014 0-.028.014-.042.014s-.014-.014-.028 0v.029a.022.022 0 0 1-.042-.014v.014c-.014 0-.014.014-.028.014a.014.014 0 0 0 .014.014.051.051 0 0 1-.042.014.014.014 0 0 0-.014-.014h-.028c-.014 0-.014.014-.028.014s-.028 0-.028.014c-.028 0-.014.028-.028.042s-.042 0-.056 0-.014.014-.014 0v.014c-.028 0-.042 0-.042.028.014 0 .014-.014.028-.014s0 .014 0 .014a.6.6 0 0 1-.069.014c-.028 0-.042.014-.056.014s-.014.028-.042.028-.056.014-.083.028-.056.028-.083.028a.04.04 0 0 0-.028.014c-.014.014-.014 0-.042 0a.084.084 0 0 0-.056.014.385.385 0 0 0-.125.014.084.084 0 0 0-.056.014c-.111-.028-.125-.014-.167 0 .014-.014.014 0 0 0m7.318-4.892a.084.084 0 0 0 .014.056c.014.014.014.028.014.056v.028a.014.014 0 0 0 .014.014.114.114 0 0 0 .069.069c.014.014.028.028.042.028a.123.123 0 0 1 .056.014c.028.028.069.014.1.028s.056 0 .083.014a.123.123 0 0 0 .056-.014h.028a.012.012 0 0 1 .014.014h.056l.014-.014c.028-.014.056-.014.083-.042s.028-.028.042-.028.028 0 .042-.014.014-.014.014-.028a.014.014 0 0 1 .014-.014.105.105 0 0 1 .056-.028c.028-.028.069-.042.083-.083.014-.014.014-.028.028-.042s.014-.028.028-.042.014-.028.028-.042l.056-.056c.014-.014.028-.042.042-.056s.028-.014.042-.028 0-.014 0-.028 0-.014.014-.014a.014.014 0 0 1 .014-.014c0-.014.014-.014.014-.028l.014-.014V4.35l.014-.014V4.28c0-.014.014-.028.014-.056s.014-.028.028-.028v-.013c0-.014 0 0-.014-.014v-.014a.04.04 0 0 0-.014-.028v-.013s.014 0 0-.014-.014-.042-.014-.056v-.028c0-.014-.014-.014-.014-.028l-.014-.014c0-.014-.014-.014-.014-.028l-.014-.014c0-.014-.014-.014-.014-.028s0-.014-.014-.028l-.014-.014c-.014-.014-.014 0-.014 0s-.042.014-.056 0a.04.04 0 0 1-.028-.014h-.028a.014.014 0 0 1-.014-.014h-.223a.04.04 0 0 0-.028.014c-.014.014-.028.014-.056.014s-.028.014-.042.014h-.028a.014.014 0 0 0-.014.014.051.051 0 0 0-.042.014l-.014.014c-.014 0-.028.014-.042.014s-.014 0-.014.014 0 .014-.014.014-.014 0-.014.014l-.014.014H17.9L17.883 4a.014.014 0 0 0-.014.014h-.028l-.014.014c-.014.014-.014 0-.028.014s0 .014-.014.014-.028.014-.042.028l-.013.016a.04.04 0 0 0-.028.014l-.014.014a.012.012 0 0 1-.014.014.043.043 0 0 0-.028.014v.014l-.014.014c-.014.014-.014.028-.028.028a.04.04 0 0 1-.014.028l-.014.014a.049.049 0 0 0-.014.028c0 .014 0 .014-.014.014a.105.105 0 0 0-.028.056c0 .014-.014.014-.014.028s0 .069-.014.056v.042h-.012v.069l-.014.028V4.6c0 .014-.014.042 0 .056s.028.014.042.028M5.047 26.041h.929v-.346h-.929v-.527h1.081v-.374H4.617v2.216h1.539v-.4H5.047v-.57zm16.548.124.5.832h-.485l-.458-.734h-.43V27h-.43v-2.221h.984a.628.628 0 0 1 .277.069.655.655 0 0 1 .221.167 1.408 1.408 0 0 1 .153.235.6.6 0 0 1 .056.263.743.743 0 0 1-.111.388.517.517 0 0 1-.277.263m-.026-.651a.411.411 0 0 0-.028-.139.3.3 0 0 0-.069-.111.249.249 0 0 0-.1-.069.327.327 0 0 0-.111-.028h-.527v.721h.541a.262.262 0 0 0 .111-.028.162.162 0 0 0 .083-.083.279.279 0 0 0 .056-.111.317.317 0 0 0 .042-.153m-4.8-14.98a.357.357 0 0 0 .028.069c.014.014.014.042.028.056s.042.028.056.042.042.014.042.028a.283.283 0 0 1 .069.014.207.207 0 0 0 .083.014h.1c.014 0 .111-.042.125-.042a1.009 1.009 0 0 0 .125-.069l.083-.042h.014a.014.014 0 0 1 .014-.014c.014-.014.028 0 .042-.014s.042-.042.056-.042a.051.051 0 0 0 .042-.014.014.014 0 0 1 .014-.014.043.043 0 0 0 .028-.014c.014-.014.028-.042.042-.056a.139.139 0 0 1 .069-.056c.014-.014.069-.056.069-.083s.014-.042.028-.056a.051.051 0 0 0 .014-.042c0-.028.014-.014.028-.014s.028-.028.014-.056.014-.042.014-.069c-.014.014-.014-.014-.014-.014h.014v-.028c-.014 0 0-.014 0-.028a.03.03 0 0 1 .028-.028s.014 0 0-.014a.014.014 0 0 1-.014-.014v-.025a.026.026 0 0 0 0-.042l-.028-.028a.051.051 0 0 1-.014-.042.176.176 0 0 1 .014-.083v-.125a.014.014 0 0 0 .014-.014v-.028l.014-.014c0-.014-.014-.014 0-.028-.014-.014 0-.056 0-.083v-.041a.443.443 0 0 1 0-.139v-.111c0-.014-.014 0-.014-.014l.014-.014v-.014c0-.014.014-.028.014-.042v-.028h.014a.2.2 0 0 0 .056.028s.014.014.014 0V8.99a.014.014 0 0 1-.014.01l-.028-.014v-.01c.014 0 .014-.014 0-.028a.012.012 0 0 0-.014-.014h-.028c-.014 0 0-.014 0-.014v-.028l.014-.014.014.014a.014.014 0 0 1-.014.014c0 .014.014 0 .014 0a.014.014 0 0 0 .014.014.014.014 0 0 1 .014.014v.014h.014v-.014a.043.043 0 0 1 .014-.028l.014-.014a.012.012 0 0 0-.014-.014.014.014 0 0 0-.014-.014l-.014-.014a.14.14 0 0 0-.042-.014l-.014-.014v-.069c0-.014-.014-.028 0-.042a.014.014 0 0 1 .014-.014c0-.014.014 0 .014-.014s0-.014-.014-.014a.084.084 0 0 1-.014-.056c0-.014.014-.014.028-.014s.014.014.014 0v-.014s.014-.014 0-.014a.014.014 0 0 0-.014-.014.03.03 0 0 1 .028-.028s.014.014.014 0v-.012c0-.014-.014-.014-.028-.028a.051.051 0 0 1 .014-.042l.014-.014v-.027a.014.014 0 0 1-.014-.014c0-.014-.014-.014-.014-.028s0-.014.014-.014.028 0 .014-.014-.028-.014-.028-.028v-.013a.014.014 0 0 1-.014-.014v-.056a.014.014 0 0 1 .014-.014V8.2a.014.014 0 0 1 .014-.014l.014-.014v-.03a.014.014 0 0 0-.014.014l-.014.014v-.042l.014-.014a.014.014 0 0 0 .014-.014c0-.014 0-.014-.014-.014h-.014v-.013a.014.014 0 0 1-.014-.014v-.07c0-.014.014 0 .014-.014v-.014c0-.014-.014-.014-.028-.014s0-.028.014-.028a.014.014 0 0 0 .014-.014v-.013l.014-.014h-.014l-.014-.014v-.055c0-.014.014-.014.014-.042a.14.14 0 0 0 .014-.042v-.014l-.014-.011-.014-.014V7.67h-.014v-.014l.014-.014.014-.014h-.014v-.264h.028v-.028h-.014v-.014l-.014-.014-.014-.014v-.013h.014v.014l.014-.014v-.042c0-.014-.014 0-.014-.014v-.014s-.014 0 0-.014h.028c0 .014 0 0 .014 0v.014h.014s-.014-.014 0-.014a.014.014 0 0 0 .014-.014v-.014a.014.014 0 0 0 .014-.014h-.056v-.013h.014l.014-.014.014-.014a.014.014 0 0 0 .014-.014h-.014v-.042h.028s.014-.014 0-.014h-.014V7a572.558 572.558 0 0 1 .028-.028c0-.014 0 0-.014-.014v-.025h-.014l.014-.028v-.041l.014-.014.028-.028s.014-.014 0-.014a.014.014 0 0 0-.014-.014v-.027h.042v-.028a.014.014 0 0 1-.014-.014c0-.014.014 0 .014-.014l.014-.014v-.028a.014.014 0 0 0 .014-.014v-.027h-.014v-.042l.014-.014v-.028h-.014V6.53v.014a.014.014 0 0 0-.014-.014v-.041H18.2l.014-.014v-.014h-.042s-.014-.014 0-.014v-.014h.014v-.014h.014v-.125h-.01a.014.014 0 0 1-.014-.014l-.014-.014-.014-.014c0-.014-.014 0-.014-.014h-.014a.014.014 0 0 1-.014-.014.049.049 0 0 0-.028-.014h-.056l-.014.014h-.1a.014.014 0 0 1-.014.014.014.014 0 0 0-.014-.014h-.028a.014.014 0 0 0-.014.014l-.014.014h-.056a.012.012 0 0 0-.014.014h-.014a.04.04 0 0 0-.028.014v.014H17.7l-.014.014-.014.014-.042.014s-.042.028-.042.042l-.014.014s-.056.042-.056.056a.014.014 0 0 0-.014.014.014.014 0 0 1-.014.014l-.028.014v.01a.014.014 0 0 0-.014.014l-.042.042-.036.044-.014.028h-.014l-.014.028h-.014a.04.04 0 0 1-.014.028.2.2 0 0 0-.028.056v.014c0 .014-.014.028-.014.042l-.014.014v.028c0 .014-.014 0-.014 0v.042a.014.014 0 0 1-.014.014.049.049 0 0 0-.014.028v.028h-.014a.061.061 0 0 0-.014.042l-.014.069c0 .014-.014.014 0 .028v.056h-.014v.014h-.014a.014.014 0 0 1 .014.014h-.014v.083a.14.14 0 0 0-.014.042l.014.014v.038c0 .014 0 .028-.014.028v.083h-.014V7.5h.014v.014h-.014V7.6a.012.012 0 0 1-.014.014v.139a.019.019 0 0 0 0 .028v.042h-.014v.195s-.014.014 0 .014v.084c0 .014.014.014.014.028h-.014c.014 0 0 .014.014.014v.056a.049.049 0 0 0-.014.028v.125c0 .014 0 .028-.014.028a.049.049 0 0 1 .014.028v.014h-.014V8.5c0 .014-.014.028-.014.042V8.6s.014.014 0 .014a.014.014 0 0 0-.014.014.014.014 0 0 1 .014.014l-.014.014v.014h.014l.014.014c0 .014-.014 0-.014 0v.083l-.014.042v.014l.014.014-.014.014v.014h.014v.014h-.014v.041c0 .014 0 .069-.014.083a.014.014 0 0 1-.014.014.014.014 0 0 0 .014.014v.028c-.014.014 0 .056-.014.069s0 .069-.014.083v.042c0 .014-.014.042-.014.056s-.014.069-.014.083 0 .014-.014.028v.042c0 .014 0 .083-.014.083v.028l-.014.014v.028c0 .014-.014.014 0 .028s.014.014 0 .014v.069c0 .028-.014.125-.014.139s-.014.056-.014.083v.1c0 .028-.014.069-.014.083v.1c0 .014-.014.028-.014.042v.042a.473.473 0 0 1-.014.139v.139c-.1-.111-.1-.083-.083-.056m6.611 15.509h.929V25.7h-.929v-.527h1.081v-.374h-1.508v2.211h1.538v-.4h-1.108v-.57zm-15.246.124h.444v.153a.725.725 0 0 1-.582.3.557.557 0 0 1-.263-.056.787.787 0 0 1-.207-.153.669.669 0 0 1-.139-.235 1.068 1.068 0 0 1-.056-.291.89.89 0 0 1 .042-.277.707.707 0 0 1 .319-.4.562.562 0 0 1 .263-.056.694.694 0 0 1 .332.083.584.584 0 0 1 .235.249l.319-.235a.735.735 0 0 0-.332-.346 1.111 1.111 0 0 0-.541-.125 1.127 1.127 0 0 0-.43.083 1.2 1.2 0 0 0-.346.235 1.1 1.1 0 0 0-.221.346 1.127 1.127 0 0 0-.083.43 1.147 1.147 0 0 0 .083.444 1.065 1.065 0 0 0 .221.36 1.1 1.1 0 0 0 .332.235 1.01 1.01 0 0 0 .419.086.85.85 0 0 0 .623-.263v.249h.36v-1.14h-.8v.319h.014zm6.778-1.011h.707v1.829h.43v-1.835h.707v-.374h-1.841v.374zm4.476.319a1.11 1.11 0 0 1 .083.416 1.127 1.127 0 0 1-.083.43 1.22 1.22 0 0 1-.221.36 1.28 1.28 0 0 1-.346.249 1.152 1.152 0 0 1-.444.1.908.908 0 0 1-.444-.1 1.324 1.324 0 0 1-.346-.249 1.18 1.18 0 0 1-.221-.36 1.11 1.11 0 0 1-.083-.416 1.127 1.127 0 0 1 .083-.43 1.1 1.1 0 0 1 .235-.36.887.887 0 0 1 .346-.249 1.152 1.152 0 0 1 .444-.1.945.945 0 0 1 .444.1 1.1 1.1 0 0 1 .346.263 1.185 1.185 0 0 1 .207.346m-.36.416a.89.89 0 0 0-.042-.277.756.756 0 0 0-.125-.235.634.634 0 0 0-.207-.167.645.645 0 0 0-.554.014.6.6 0 0 0-.207.167.8.8 0 0 0-.125.235.941.941 0 0 0 0 .554.662.662 0 0 0 .332.4.587.587 0 0 0 .554 0 .6.6 0 0 0 .207-.167.8.8 0 0 0 .125-.235 1.217 1.217 0 0 0 .042-.291m6.711-17.855V8c-.014 0-.028.014-.042 0s.028-.028.028-.028v-.018a.04.04 0 0 1 .014-.028c.014 0 0 0 0-.014V7.9c0-.014 0 0-.014-.014L25.7 7.87c0-.014.014-.014.014-.028s-.014-.014-.028-.028V7.8a.012.012 0 0 0-.014-.014v-.041c-.014 0-.014-.014-.014-.028s-.014-.014-.028-.028-.028-.014-.014-.028 0-.014-.014-.028-.014-.014-.014-.028-.014-.014-.028-.028l-.014-.014-.014-.014c-.014 0 0-.014-.014-.014s-.014-.014-.028-.028-.028-.014-.042-.014a.014.014 0 0 0 .014.014c-.014 0-.042 0-.042-.014a.051.051 0 0 0-.014-.042c-.014.014-.014 0-.028 0s.014.014.014.028h-.111c-.014 0-.028-.014-.056-.014s-.028-.014-.056-.014-.028-.014-.042-.014-.042-.014-.056-.014c-.042 0-.083.014-.125.014h-.069a.014.014 0 0 0-.014.014.051.051 0 0 0-.042.014.6.6 0 0 0-.069.014.106.106 0 0 0-.069.028.04.04 0 0 0-.028.014c-.042.014-.1.042-.139.056a.185.185 0 0 0-.069.042c-.014 0-.014.014-.028.014a.014.014 0 0 1-.014.014l-.014-.014c-.014 0-.028.028-.042.028h-.014c0 .014-.042.028-.056.042s-.042.028-.056.028-.042.028-.056.028l-.083.042h-.028c-.014 0 0 .014-.014.014a.043.043 0 0 0-.028.014c0 .014-.042.014-.028.028h-.014c-.014.014-.028.014-.056.028l-.014.014a.043.043 0 0 0-.028.014c-.014 0-.042.014-.042.028v.014h-.014c-.014 0-.028 0-.028.014a.049.049 0 0 1-.028.014h-.014V8h-.014a.051.051 0 0 1-.042.014.049.049 0 0 0-.028.014c-.028.014-.042.014-.069.028a.106.106 0 0 1-.069.028c-.014 0-.028 0-.028.014s-.056.028-.056.028-.042.014-.069.028a.493.493 0 0 1-.153.042h-.056c-.014 0-.028-.014-.042-.014v-.02a.105.105 0 0 1-.056-.028c-.028-.028-.014-.042-.028-.056s-.028-.014-.056-.014-.028 0-.028-.014a.014.014 0 0 1 .014-.014v-.013c0-.028-.014 0-.028-.014s-.014-.028-.014-.042v-.041c-.014 0-.014-.028-.028-.028s-.014.014-.028.014-.014-.014-.014-.028h.014c0-.014-.014 0-.014-.014s-.014-.014 0-.014a.044.044 0 0 0 .042-.042v-.027h-.014a.014.014 0 0 0-.014-.014c-.014 0-.028.014-.028 0v-.042c-.042 0 .014-.042.014-.056a.051.051 0 0 1-.042-.014c-.014 0-.028 0-.028-.014l.014-.014V7.62a.017.017 0 0 1 0-.028c0-.014.014-.014.014-.028s-.014-.014-.014-.028 0-.028.014-.028.014.014.028.014.014-.028.014-.028-.014-.014-.028-.014a.038.038 0 0 1-.028-.056c.014-.014.028 0 .042-.014s-.014-.014-.028-.014-.014-.014 0-.028.028.014.042 0v-.026c0-.014.014-.028-.014-.028s0 .014-.014.028-.028.014-.028 0a.014.014 0 0 0 .014-.014v-.055c0-.014-.014-.028.014-.014s.014.028.028.014 0-.056 0-.069v-.029c0-.014-.014-.014-.014-.028s0-.014.014-.028.014-.014.014-.028 0-.028.014-.014v.028l.014-.014v-.013c0-.014-.014 0-.014-.014s0-.014-.014-.028v-.013c0-.014-.014-.014-.014-.028s.028-.014.028-.028.028-.028 0-.028a.14.14 0 0 1-.042-.014.04.04 0 0 1-.014-.028V6.87a.049.049 0 0 0 .014-.028c0-.014-.014-.014-.014-.028s.028 0 .042-.014-.014-.014-.014-.028-.014-.014-.014-.028v-.013l.014-.014V6.7s-.014-.014 0-.014h.044a.017.017 0 0 0 0-.028c0-.014 0-.028-.014-.028s-.028 0-.028-.014v-.343c0-.042-.014-.069 0-.1s.014-.028.014-.042l-.014-.014c0-.014 0-.056.014-.069s.028 0 .042 0 .042.014.014-.014-.028-.014-.028-.028V6a.019.019 0 0 1-.028 0v-.046c0-.028 0-.014.028-.014s.028 0 .028-.028 0-.014-.014-.028-.028-.014-.042-.028 0-.069 0-.083.014.014.028 0 .014-.014.028 0 .014.014.028 0v-.014l.014-.014a.045.045 0 0 1-.028-.042.051.051 0 0 0-.014-.042.04.04 0 0 1-.014-.028c0-.014.014 0 .014-.014a.043.043 0 0 0-.014-.028s.028 0 .014-.014-.028 0-.028-.014.014 0 .028-.014a.019.019 0 0 0 0-.028.04.04 0 0 1-.014-.028c0-.014 0-.028.028-.028s.014.014.028.014.014-.014.014-.028c-.028.028-.014-.014-.028-.014a.089.089 0 0 1 0-.083c.014-.014 0-.014 0-.042V5.3c0-.014.014-.014 0-.014s-.042.028-.042.042-.014.028-.028.014 0-.028 0-.042a.014.014 0 0 1 .014-.014v-.027a.04.04 0 0 1-.014-.028v-.042a.176.176 0 0 1 .014-.083l.014-.028h.028a.014.014 0 0 1 .014-.014h.028c.014 0 .014-.014 0-.014h-.014a.012.012 0 0 1-.014-.014c0-.014-.014-.014-.014-.028s-.014-.042 0-.056.028 0 .014-.028.028-.014.014-.014h-.042c-.014 0-.014-.028-.028-.042l-.028-.028c-.014-.028 0-.056 0-.083.014 0 .042.014.056 0-.014-.014-.014-.056-.028-.056a.051.051 0 0 1-.042-.014v-.039c0-.028-.014-.042-.014-.069s.014-.028.014-.042-.014.028-.028.014-.014-.042-.014-.056 0-.014-.014-.028l-.028-.028a.04.04 0 0 1-.014-.028c0-.014.014-.014.014-.028 0-.042-.028 0-.028.014s-.042-.042-.042-.056l-.028-.028a.03.03 0 0 1-.028-.028.677.677 0 0 0-.153-.056.176.176 0 0 0-.083-.014c-.028 0-.069-.014-.1-.014h-.083c-.028 0-.056.014-.083.014a.049.049 0 0 0-.028.014h-.042a.051.051 0 0 0-.042.014c-.014 0-.028.014-.042.014s-.056.014-.069.028l-.028.028c-.014.014-.042.014-.056.028a.3.3 0 0 0-.069.042c-.042.028-.1.056-.139.083s-.042.028-.069.042-.042.028-.056.042 0 .028-.014.028-.028.028-.042.028-.042.042-.056.056-.028.042-.042.056l-.028.028c-.014.014-.028.014-.042.028s-.083.056-.1.111V4.9c-.014 0-.014.014-.014.028a.04.04 0 0 0-.028.014c-.014.014-.014.042-.028.056s-.042.028-.056.042a.04.04 0 0 1-.028.014L21 5.082c-.014.014-.042.042-.056.042s-.042.028-.069.028a.051.051 0 0 0-.042.014c-.014 0-.028.014-.042.028s-.028.014-.042.014h-.042c-.028 0-.042.014-.069 0a.051.051 0 0 1-.042-.014c-.014 0-.028-.014-.042-.014s-.042.014-.056 0l-.028-.028c-.014-.014-.014-.028-.028-.014h-.028c-.028-.014-.056 0-.083 0a.048.048 0 0 0-.028.014l-.028.028c-.014.014-.069 0-.083 0h-.083a.813.813 0 0 0-.181.028.2.2 0 0 0-.083.028c-.014 0-.028.014-.042.014h-.028c-.028.014-.042.028-.069.042a.3.3 0 0 0-.069.042c-.014.014-.028.014-.042.028a.014.014 0 0 1-.014.014h-.014a.014.014 0 0 1-.014.014.043.043 0 0 0-.028.014c-.014 0-.014.028-.042.028s-.042.042-.069.069-.028.042-.042.056a.192.192 0 0 1-.042.056c-.014.028-.014.042-.028.069s-.028.042-.042.069-.014.042-.028.069a.677.677 0 0 0-.056.153c0 .028-.014.069-.014.1v.083a.792.792 0 0 0-.014.181.57.57 0 0 1-.014.153.3.3 0 0 0 0 .111.3.3 0 0 0 0 .111v.139a.043.043 0 0 0 .014.028v.277a.3.3 0 0 0 0 .111V7.3c0 .028-.014.028-.014.056v.181a.019.019 0 0 0 0 .028.1.1 0 0 0-.014.069v.042c0 .014-.014.028-.014.042l.014.014a.014.014 0 0 1-.014.014v.623c0 .014-.014.028 0 .042h.014c.014.014 0 .056 0 .069s.014.056-.014.056h.014V8.6c0 .014-.014.028 0 .042s0 .028 0 .042v.235c0 .014-.014.042-.014.056a.049.049 0 0 1 .014.028V9.2a.051.051 0 0 0 .014.042v.167a.345.345 0 0 0 .014.111.014.014 0 0 1 .014.014v.014c0 .014.014.014.014.028a.051.051 0 0 1 .014.042.114.114 0 0 0 .069.069.6.6 0 0 0 .1.056c.014 0 .028.014.056.014h.056c.042 0 .069.014.1 0s.083 0 .111-.014.069-.028.111-.042c.014-.014.028-.014.042-.028a.051.051 0 0 1 .042-.014c.014 0 .028-.028.042-.028h.028c.014 0 .014-.014.028-.014s.042-.014.069-.028.014-.014.028-.028.028-.014.042-.028l.014-.014a.04.04 0 0 0 .028-.014.014.014 0 0 1 .014-.014l.014-.014c.014-.014.028-.028.028-.042.014.014.056 0 .042 0h-.014c-.028-.028.042-.028.056-.042V9.3h.014a.014.014 0 0 1 .014-.014c.014-.014.014 0 .028-.014s0-.014-.014-.028l.014-.014V9.2a.014.014 0 0 0 .014-.014v-.028c.056 0 .014-.014.028-.028l.028-.028a.049.049 0 0 1 .028-.014c.014-.014-.014-.014 0-.028s.014-.014.042-.014c0-.028.014-.042 0-.056s-.014-.028-.028-.042a.084.084 0 0 1-.014-.056c0-.028-.014-.042-.014-.056s.014.056.042.056.014-.014 0-.028-.014-.014-.014-.042v-.011a.014.014 0 0 1-.014-.014c0-.014.014-.028.028-.042a.14.14 0 0 0 .014-.042.014.014 0 0 0-.014-.014v-.013c.014-.014.042-.028.042-.056s-.014-.028-.014-.042-.028.014-.014-.014c-.014 0-.056 0-.056-.028s.042 0 .056-.014v-.027c0-.014-.014 0-.014-.014-.028 0-.014-.014-.028-.042s-.014-.014 0-.028a.012.012 0 0 0 .014-.014c0-.014-.014-.014-.014-.028s.028-.014.042-.028a.105.105 0 0 0 .028-.056h-.014c-.014 0-.014.014-.028.028s-.028 0-.028-.014.028-.028.028-.028-.028 0-.028-.014.014-.028.014-.042v-.191c0-.014-.014-.042 0-.069v-.056a.012.012 0 0 1 .014-.014h.028c0-.014-.014-.014-.014-.042a.014.014 0 0 1-.014-.014.012.012 0 0 1-.014-.014c-.014-.028.014-.028.014-.042-.028 0 .014-.042.028-.042s0-.014-.014-.014V7.7s-.014-.056 0-.028 0 .042 0 .056h.042a.057.057 0 0 1 .042-.014c.028-.014.014-.014 0-.028s-.028 0-.028-.014.014-.014.014-.028v-.027c0-.014-.014-.014-.014-.028s.014 0 .028-.014a.043.043 0 0 1-.014-.028l.014-.014-.014-.014q-.042-.021-.042-.042a.012.012 0 0 1-.014-.014c0-.014.014-.014.014-.028v-.04c.014 0 .028.014.042.014s.028-.014.014-.014c0-.028-.014-.028-.028-.042.014-.014.083 0 .056-.042A.012.012 0 0 1 20.6 7.3h.028c.042 0 .014-.028.042-.042s0-.028 0-.056-.014-.014-.014-.028l-.028-.028a.04.04 0 0 0 .014-.028c0-.014-.014-.014-.014-.028v-.043a.049.049 0 0 0-.014-.028.063.063 0 0 1 .042-.042c.014 0 .056.014.069-.014l-.025-.027h-.042c.014-.014.042 0 .056-.028s-.014-.014-.014-.028.014-.014.014-.028.028 0 .028-.014-.014-.014-.028-.014-.056-.014-.042-.042l.014-.014h.014c.014-.014-.014-.014-.014-.028s.056 0 .028.028h.028a.012.012 0 0 0 .014-.014c.014-.014.028-.028.028-.042s-.028 0-.042-.014.014-.028.028-.042l.028-.028c.014-.014-.014-.028-.014-.042l.014-.014v-.108c0-.014-.014-.014 0-.028a.014.014 0 0 1 .014-.014c.014 0 .014.014.028 0s0-.014 0-.014v-.014h.014c.014-.014 0-.028.014-.042s.014-.028.014-.042.014-.056 0-.083-.014-.028.014-.028a.048.048 0 0 0 .028-.014.192.192 0 0 0 .056-.042.085.085 0 0 0 .014-.083c0-.014-.028-.028-.028-.028h.014c.014 0 0 .014.014.014h.028l.042-.042a.139.139 0 0 1 .069-.056c.014 0 .014-.014.028-.028a.043.043 0 0 1 .028-.014c.014-.014.014-.056.028-.083a.105.105 0 0 0 .056-.028c.014-.014 0-.014 0-.028s.014-.014.014-.028.014-.014.014-.028l.028-.028a.057.057 0 0 1 .042-.014c.042 0 .042-.042.056-.056a.049.049 0 0 1 .028-.014.051.051 0 0 0 .042-.014l.028-.028c.014-.014.028 0 .042-.014a.3.3 0 0 1 .069-.042h.064a.057.057 0 0 1 .042-.014h.028c.014 0 0 .014.014.014s.014-.014.014 0l.014.014c.028.014.056 0 .083 0a.16.16 0 0 1 .125.083c0 .014.014.028.014.042s0 .028.014.028a.014.014 0 0 1 .014.014v.569h-.014c0 .014.014 0 .014.014v.167c0 .069-.014.125-.014.194v.139h-.014v.014c0 .014-.014.028 0 .042h.014c0 .014.014.028 0 .042l-.028.028a.051.051 0 0 0-.02.043l.014.014v.083a.014.014 0 0 1 .014.014v.028c0 .028-.014.042-.014.069S22 7.17 22 7.184v.042a.306.306 0 0 1-.014.111c-.014.028.014.042.014.069s.014.056.014.083a.236.236 0 0 1-.014.1c-.014.014 0 .056 0 .083v.153a.014.014 0 0 1-.014.014c-.014.028 0 .028-.014.056s-.028.042-.014.056.014.014.014.042v.042c0 .014-.014.028 0 .042s.014.028.014.042V8.2a.785.785 0 0 0 0 .181v.083a.1.1 0 0 0 .014.068v.042c0 .014.014.028.014.042s.014.014.028.028a.051.051 0 0 1 .014.042c0 .014.014.028.014.042s.014.028.028.042.028.042.042.056.028.014.028.028.014.014.028.028.042.028.069.042.028 0 .028.042c0 .014-.014.028-.014.042a.049.049 0 0 0-.028.014.072.072 0 0 1-.056.028.04.04 0 0 0-.028.014c-.028.014-.056.042-.083.056s-.028.028-.056.042-.042.014-.056.042a.043.043 0 0 1-.028.014l-.028.028a.04.04 0 0 1-.028.014c-.014 0-.014.014-.028.014s-.056.042-.083.056-.1.042-.139.069c-.111.056-.194.125-.3.181-.028.014-.056.014-.069.042s-.028.014-.042.028a.048.048 0 0 0-.028.014.539.539 0 0 1-.153.083c-.014.014-.042.014-.056.042a.14.14 0 0 1-.042.014.049.049 0 0 0-.028.014.348.348 0 0 1-.1.056.012.012 0 0 0-.014.014c-.014.014-.028.014-.042.028s-.028.028-.042.028-.042 0-.042.014a.463.463 0 0 0-.139.083c-.042.028-.1.042-.139.069-.014.014-.014.028-.028.028h-.014l-.014.014a.051.051 0 0 1-.042.014c-.014 0-.014.014-.028.014-.042.028-.1.056-.139.083a.83.83 0 0 0-.153.083c-.028.014-.042.028-.069.042s-.042.028-.069.042a.563.563 0 0 0-.125.069c-.028.014-.042.028-.069.028s-.028.028-.056.042a.048.048 0 0 0-.028.014h-.028c-.028.014-.042.042-.069.042-.056.028-.1.069-.153.1a.072.072 0 0 1-.056.028.051.051 0 0 1-.042.014c-.014 0-.014.014-.028.028a.043.043 0 0 1-.028.014c-.014 0-.014.014-.028.028a.04.04 0 0 1-.028.014.03.03 0 0 0-.028.028.04.04 0 0 0-.028.014.043.043 0 0 0-.014.028h-.014a.014.014 0 0 0-.014.014l-.01.002h-.014a.014.014 0 0 1-.014.014h-.012a.192.192 0 0 0-.056.042.04.04 0 0 1-.028.014.049.049 0 0 0-.028.014l-.028.014c-.014 0-.014-.014-.028-.014s-.042.014-.042.028v.014l-.014.014c-.014.014-.028.042-.056.042s-.014-.014-.028 0a.04.04 0 0 0-.014.028c-.014.014-.042.028-.056.042s-.042.014-.069.028-.042.014-.069.028a.3.3 0 0 0-.069.042c-.028.014-.042.014-.056.042s-.028.028-.042.028a.014.014 0 0 0-.014.014c-.014.014-.042.014-.056.028s-.042.028-.069.042-.042.014-.056.028a.105.105 0 0 0-.056.028.244.244 0 0 0-.069.056.106.106 0 0 1-.069.028c-.028.014-.042.028-.069.042s-.028.028-.042.028a.051.051 0 0 0-.042.014c-.014.014-.028.028-.042.028a.063.063 0 0 0-.042.042l.014.014c-.056.028-.125.069-.181.1a2.058 2.058 0 0 0-.181.111l-.332.207a1.719 1.719 0 0 0-.207.139c-.014.014-.028.014-.028.028a.051.051 0 0 0-.042.014c-.014 0-.014.014-.028.028s-.028.014-.042.028-.042.028-.069.042-.042.028-.069.042l-.028.028c-.014 0-.014.014-.028.014a.3.3 0 0 1-.069.042.049.049 0 0 0-.028.014.012.012 0 0 0-.014.014.043.043 0 0 1-.028.014c-.014.014-.028.014-.028.028l-.014.014a.014.014 0 0 0-.014.014c-.014 0-.014.014-.028.028H16.2l-.014.014a.04.04 0 0 1-.028.014c-.014 0-.056.028-.069.028a.151.151 0 0 0-.014-.069.04.04 0 0 0 .014-.028q-.014-.014 0-.042c0-.014.014-.028.014-.042s-.014-.014 0-.028.014-.056 0-.069a.063.063 0 0 1 0-.069c.014-.028 0-.042 0-.069a.176.176 0 0 1 .014-.083.1.1 0 0 1 .014-.069c0-.014.014-.028.014-.042v-.014l-.014-.014a.014.014 0 0 1 .014-.014c.014-.014 0-.014 0-.028s.014-.014 0-.028l-.014-.014V12c0-.028-.028-.028-.014-.056a.084.084 0 0 0 .014-.056c-.028.014 0-.028 0-.028-.028 0-.014-.056-.014-.069h.028c0-.014-.014-.014-.028-.028s0-.014.014-.028a.105.105 0 0 0 .028-.056c0-.014 0-.014-.014-.028a.04.04 0 0 1 .014-.028v-.056c0-.014-.028-.014-.028-.042v-.139l.014-.014c0-.014-.014 0-.014-.014v-.028c0-.014.014-.028.014-.056s.014-.069.014-.111v-.042c0-.014.014-.014.014-.028a.014.014 0 0 0 .014-.014c-.014-.014-.028 0-.028-.014v-.207c.014-.028.028-.042.014-.069-.028 0-.014-.014 0-.028v-.056c0-.042.014-.083.014-.125a.306.306 0 0 1 .014-.111v-.083s.014-.028.014-.014c-.028 0 0-.042 0-.056v-.167c0-.014-.014-.069.014-.069a1.507 1.507 0 0 1 .028-.249 1.411 1.411 0 0 1 .014-.235c0-.028.014-.042.014-.056v-.227c0-.014.014-.014 0-.028a.014.014 0 0 0-.014-.014c0-.014.014-.028.028-.042s-.014-.028-.014-.042.014-.028.014-.056V8.98c.014 0 .069-.028.042-.042 0 .014-.014.028-.028.014s0-.028 0-.042-.014-.042 0-.042a.014.014 0 0 1 .014.014c.014-.028-.014-.028-.014-.042s0-.028.014-.028 0 .014.028.014v-.041c0-.014-.014-.014 0-.028a.014.014 0 0 0 .014-.014V8.73c0-.014.014-.028.014-.042s-.014-.028-.014-.042V8.6a.051.051 0 0 0-.014-.042.04.04 0 0 1-.014-.028c.014-.028.042-.028.028-.069 0-.014-.014-.014-.014-.028s.014-.014.014-.028-.014-.014-.014-.028v-.036c0-.028-.014-.069.014-.083s.028-.014.014-.042-.014-.028 0-.042.014-.028-.014-.028c0-.014-.014-.028 0-.042s.028 0 .028-.014a.04.04 0 0 0 .014-.028c0-.014-.028-.014-.028-.028v-.096a.014.014 0 0 1 .014-.014c-.014 0-.014-.014-.014-.028s0-.014-.014-.028a.051.051 0 0 1 .014-.042v-.083c0-.014.028-.014.014-.028s-.028-.014-.028-.028.028 0 .042-.014l.014-.014c-.014-.014-.028 0-.042-.014s-.014-.014 0-.028 0-.042-.028-.056l-.028-.028c0-.014-.014-.014-.028-.028a.192.192 0 0 1-.042-.056c-.028-.056-.1-.056-.139-.083a.258.258 0 0 0-.1-.028h-.1a.4.4 0 0 0-.181.014c-.028.014-.042.028-.069.028a.049.049 0 0 0-.028.014h-.04v.016c-.014 0-.042.028-.042.014a.012.012 0 0 0-.014.014c-.014 0-.028.028-.042.028s-.028.014-.056.042l-.042.042c-.014.014-.042.042-.042.056h-.014v.014a.03.03 0 0 0-.028.028v.012a.014.014 0 0 1-.014.014l-.042.083a.051.051 0 0 1-.014.042c0 .014-.014.028-.014.042v.083c0 .028-.014.056-.014.083v.056c0 .014-.014.028-.014.042a.176.176 0 0 1-.014.083c0 .042-.014.069-.014.111v.111a.176.176 0 0 1-.014.083v.056c-.014.028 0 .056 0 .1v.042c0 .014-.014.028-.014.042l.014.014v.235c0 .028-.014.056-.014.083v.083c0 .028-.014.069 0 .1a.051.051 0 0 1-.014.042v.277c0 .028-.014.042-.014.069s.014.056 0 .056-.028-.014-.042.014a.14.14 0 0 0-.014.042c0 .014.014 0 .028.014s0 .056 0 .083v.014a.014.014 0 0 0-.014.014v.042c0 .028.014.069 0 .1s0 .056-.014.1-.014.069-.014.1v.056l-.014.014v.014a.176.176 0 0 1-.014.083c0 .028-.014.056-.014.083s-.012.027-.012.055.014.056 0 .083h-.014v.139a.385.385 0 0 0-.014.125v.042c0 .014-.014.014-.014.028s0 .069-.014.1-.014.056-.014.083a.7.7 0 0 1-.028.167v.042a.051.051 0 0 1-.014.042.176.176 0 0 0-.014.083.712.712 0 0 1-.125.277l-.042.042a.6.6 0 0 0-.083.1c-.014.014-.028.028-.042.028h-.014c0 .014-.014.014-.014.028a.014.014 0 0 1-.014.014.014.014 0 0 0-.014.014.03.03 0 0 0-.028.028c-.014 0-.014.014-.028.014a.049.049 0 0 0-.028.014.051.051 0 0 1-.042.014c-.014 0-.028.014-.042.014s-.028.014-.042.028c-.042.014-.1.014-.139.028h-.125c-.014 0-.028-.014-.042-.014s-.028-.014-.042-.014-.028-.014-.042-.028l-.069-.069c-.027-.027-.042-.042-.042-.069a.051.051 0 0 0-.014-.042l-.028-.028-.042-.167a.669.669 0 0 1 0-.167.049.049 0 0 1 .014-.028c0-.014-.028-.014-.028-.028l.014-.028a.125.125 0 0 0-.014-.069.051.051 0 0 0-.014-.042v-.042c0-.014.014-.014.014-.028a.125.125 0 0 0 .014-.069v-.083a.623.623 0 0 1 .014-.167.176.176 0 0 0 .014-.083v-.083c0-.014-.014-.042 0-.056s.014-.014.014-.028v-.035c.014 0 .028-.056.028-.069s-.014-.056-.014-.083c-.028 0-.014-.014-.014-.042l-.014-.014v-.056c0-.028-.014-.042 0-.042s0-.111 0-.125.014-.028.014-.042.028-.042.028-.069v-.042c0-.014 0-.028.014-.028a.051.051 0 0 1 .014-.042c0-.014.014-.028.014-.042s.014-.056.028-.083a.2.2 0 0 1 .028-.1c.014-.028.014-.056.028-.083s.056-.042.056-.083.028-.056.028-.1 0-.083.042-.1c0-.014.014-.042.028-.042V9.31c.028 0 .014-.028.028-.056s.028-.042.042-.014c.014-.014.014-.028.028-.042a.084.084 0 0 1 .014-.056c-.028-.014 0-.028.014-.042s.014-.028.028-.042c.028-.028.042-.014.042-.056h.014a.2.2 0 0 1 .028-.083c.014-.014.042-.069.056-.056v-.025a.051.051 0 0 1 .042-.014c.014-.014.014-.028.028-.028s.028 0 .028-.028c.014 0 .028-.042.028-.042s0-.028.014-.028.014-.014.014-.028.028 0 .028-.014V8.6a.049.049 0 0 1 .028-.014l.042-.042c-.014 0 0-.042 0-.056s.014-.014.014-.028v-.025c0-.014.028-.056.028-.083a.051.051 0 0 0-.014-.042.014.014 0 0 1 .014-.014c0-.014 0-.056.014-.056a.089.089 0 0 0 0-.083c0-.014-.014-.014-.014-.028a.051.051 0 0 0-.014-.042c-.014 0 0-.014 0-.028a.049.049 0 0 0-.014-.028c-.014 0-.014-.014-.028-.028a.04.04 0 0 1-.014-.028.051.051 0 0 0-.042-.014.051.051 0 0 1-.042-.014.049.049 0 0 1-.028-.014h-.027c-.014 0-.028-.014-.042-.014h-.042a.051.051 0 0 0-.042.014h-.042a.051.051 0 0 0-.042.014c-.014.014-.014.014-.028.014s-.042.014-.069.014-.042.014-.069.028a.049.049 0 0 0-.028.014c-.014 0-.014.014-.028.014a.051.051 0 0 0-.042.014c-.014 0-.028.014-.042.014a.105.105 0 0 0-.056.028c0 .014-.014.014-.028.014s-.014.014-.028.028l-.028.028-.014.014a.014.014 0 0 0-.014.014s-.014.042-.014.014a.014.014 0 0 0-.014.014.04.04 0 0 0-.028.014c-.014 0-.042.014-.042.028a.334.334 0 0 0-.111.083.375.375 0 0 0-.111.1l-.042.042-.024.02a.049.049 0 0 1-.014.028h-.014l-.014.014-.028.028-.042.042a.04.04 0 0 1-.014.028.014.014 0 0 0-.014.014c-.014.014-.014.028-.028.042s-.042.042-.056.069a.555.555 0 0 1-.042.056c-.014.014-.014.014-.014.028s0 .014-.014.014l-.014.014c-.014.014-.014.028-.028.042s-.028.028-.028.042-.014.028-.014.042H13c-.014 0 0 .028-.014.028s-.014.014-.028.028-.014.014-.014.028V9.1l-.014.014v.016l-.014.014c0 .014-.014.014-.014.028s-.014.014-.014.028a.049.049 0 0 1-.014.028.051.051 0 0 1-.014.042c0 .014-.014.014-.014.028s-.014.042-.028.069 0 .028-.014.028-.014.014-.014.028v.042c0 .014-.014.014-.014.028s0 .028-.014.028-.014.028-.014.042a.084.084 0 0 0-.014.056c0 .028-.014.042-.014.069a.106.106 0 0 1-.028.069.125.125 0 0 0-.014.069c0 .028-.014.042-.014.069s-.014.1-.028.139-.014.042-.014.069a.049.049 0 0 1-.014.028c0 .014.014.014 0 .028a.6.6 0 0 1-.014.069v.1c0 .014-.014.028-.028.056v.056s-.014 0 0 .014 0 .028 0 .028a.014.014 0 0 0-.014.014v.1a.676.676 0 0 1-.014.167.67.67 0 0 0 0 .167v.056c0 .028-.014.028-.014.042s-.014.028-.014.056a.051.051 0 0 0-.014.042v.111c.028.014-.014.083 0 .1s.014.028.028.042.014.028.014.056v.458a.3.3 0 0 1 0 .111 1.035 1.035 0 0 0 0 .207v.069h-.014a.084.084 0 0 1 .014.056c0 .028.014.042.014.069v.069c.014.042.014.083.028.139v.042a.049.049 0 0 0 .014.028c0 .028.014.042.014.069s.042.042.028.069a.051.051 0 0 1 .014.042c0 .014.014.028.028.042s0 .028.014.042.028.014.028.028a.368.368 0 0 0 .069.083c.028.028.056.042.069.056a.043.043 0 0 0 .014.028.014.014 0 0 1 .014-.014.487.487 0 0 0 .111.069c.028.014.042.014.069.028s.014.014.028.028 0 .028.028.028v-.014a.057.057 0 0 1 .042.014.051.051 0 0 0 .042.014h.056c.014 0 .014.014.042.014a.051.051 0 0 1 .042.014h.125v.014h.014v-.027c.028-.014.056.014.083 0h.056a.051.051 0 0 0 .042-.014c.028-.014.069 0 .111-.014s.069-.014.1-.028c0-.014.028 0 .042-.014h.014v-.014c.014-.014.014 0 .028 0a.014.014 0 0 0 .014.014h.014a.049.049 0 0 1 .028.014.049.049 0 0 0 .028-.014c.014 0 .056.028.056 0-.014 0-.056.014-.042-.014s.042-.014.056-.014.042-.014.056-.014.042.028.042 0a.014.014 0 0 1-.014-.014h.028c.014 0 0-.014.014-.014h.069c.013 0 .042-.014.056-.014s.056 0 .056-.028h.028c.014 0 0-.014.014-.014s.028 0 .042-.014 0-.014.014-.014a.014.014 0 0 0 .014-.014c.014-.014.014-.028.028-.028s.042 0 .056-.014 0-.028.014-.042.028-.014.042-.028.028-.014.042-.028a.051.051 0 0 1 .042-.014c0-.014.014-.028.028-.042a.051.051 0 0 1 .042-.014h.014c.042 0 .028.069.028.083a.206.206 0 0 0 .014.1v.042a.026.026 0 0 0 0 .042c0 .014.014 0 .014.014v.083a.049.049 0 0 0 .014.028.014.014 0 0 1-.014.014v.042c.014.014 0 .014.014.014v.056c0 .014.014 0 0 .014a.012.012 0 0 1-.014.014v.056a.019.019 0 0 1 0 .028c0 .014.014.014 0 .028v.028c-.014.014-.042.014-.056.028s-.028.014-.042.028-.028.014-.042.028-.028.014-.042.028-.042.042-.069.056a.139.139 0 0 0-.069.056c-.014.014-.042.028-.056.042s-.056.028-.056.042a.012.012 0 0 0-.014.014 1.451 1.451 0 0 0-.194.125c-.028.014-.042.042-.069.056s-.028.014-.042.028-.028.014-.042.028a.014.014 0 0 1-.014.014l-.014.014c-.014.014-.028.014-.042.028a.974.974 0 0 0-.139.111 1.209 1.209 0 0 1-.153.125c-.069.028-.111.1-.181.125 0 .014-.014.014-.028.028l-.028.028c-.028.014-.042.028-.069.042a.03.03 0 0 0-.028.028c-.014.014-.014.028-.028.028a.051.051 0 0 0-.042.014l-.028.028c-.014 0-.014.014-.028.028a.057.057 0 0 1-.042.014c0 .028-.028.028-.042.042l-.042.042c-.014.014-.042.014-.056.028s-.014.028-.042.028c0 .014-.028.014-.028.028s-.014.028-.028.028a.051.051 0 0 1-.042.014c-.014.014-.028.014-.028.028a.162.162 0 0 1-.042.028c-.014 0-.028.014-.042.028s-.042.042-.069.056a.422.422 0 0 1-.1.069c-.028.014-.056.042-.1.069v.014c-.014.014-.014 0-.028.014a.049.049 0 0 0-.014.028c-.014 0-.014.014-.028.014l-.028.028c-.014.014-.042.014-.056.028s-.042.028-.056.042l-.028.028-.028.028a.051.051 0 0 1-.042.014.014.014 0 0 1-.014.014h-.014c-.014.014-.042.028-.056.042l-.028.028a.03.03 0 0 0-.028.028.118.118 0 0 0-.069.042.04.04 0 0 1-.028.014.049.049 0 0 0-.028.014c-.014 0-.014.028-.028.028v-.014c-.014 0-.014.014-.028.028a.043.043 0 0 1-.028.014c-.014.014-.042.028-.056.042a.192.192 0 0 0-.056.042.051.051 0 0 1-.042.014l-.028.028v.014c-.028.014-.042.042-.069.056s-.028.014-.042.028a.107.107 0 0 0-.028.042l-.028.028c-.014.014-.014.028-.028.028s-.028.014-.042.028-.014.028-.028.042a.3.3 0 0 0-.069.042l-.056.056a.3.3 0 0 1-.069.042.244.244 0 0 0-.069.056c-.028.014-.028.042-.056.056s-.042.042-.069.056a1.209 1.209 0 0 0-.153.125 1.252 1.252 0 0 0-.139.125c-.028.028-.056.042-.083.069s-.014.028-.028.028-.028.014-.042.028c-.042.042-.083.069-.125.111a.375.375 0 0 0-.111.1c-.028.028-.056.056-.083.056.014.042-.069.042-.069.069-.014 0-.014-.014-.028-.014 0 .042-.069.069-.1.083s-.042.028-.042.042-.042.028-.069.028c0 .014-.014.028-.028.042l-.028.028c-.014.028-.042.042-.069.069-.056.042-.1.083-.153.125-.014.014-.028.014-.042.028s-.014.042-.028.056c-.014-.014-.028.014-.028.014s-.028.014-.042.028a.3.3 0 0 1-.069.056c-.042.042-.1.083-.139.125a1.815 1.815 0 0 0-.167.153c-.014 0-.028.014-.042.028s-.014.028-.028.042-.028.014-.042.028-.011-.008-.011.002a.368.368 0 0 0-.083.069C9 18.173 9 18.187 9 18.2c-.028.014-.056.042-.083.056s-.069.042-.069.056a.368.368 0 0 0-.083.069c-.014.014-.028.014-.042.028s-.014.028-.028.028c-.028.028-.056.042-.069.056l-.069.069a1.253 1.253 0 0 0-.139.125l-.056.056c-.014.014-.042.028-.056.042s-.042.028-.042.042v.028c0 .014-.014 0-.028.014a.3.3 0 0 0-.069.056l-.028.028c-.014.014-.028.014-.028.028l-.042.042c-.014.014-.028.014-.042.028s-.014.028-.028.028l-.014.014-.014.014c-.028.014-.042.042-.069.056l-.139.139a.139.139 0 0 1-.069.056l-.069.069c-.042.042-.1.069-.125.125s-.1.083-.139.125c-.014.014-.028.014-.028.028s-.014.028-.028.042a.3.3 0 0 1-.069.056c-.028.014-.042.042-.056.056a.3.3 0 0 1-.069.056c-.042.042-.083.069-.125.111l-.125.125a1.585 1.585 0 0 0-.153.153l-.069.069c-.014.028-.042.042-.056.069a1.209 1.209 0 0 1-.125.153.764.764 0 0 1-.1.125.3.3 0 0 1-.056.069.3.3 0 0 1-.042.069l-.042.083c.014 0 0 .028 0 .042s-.014.069-.014.1.028.056.028.1v.056c0 .014.014.028.014.042s.014.042.028.069.014.028.014.042a.2.2 0 0 1 .028.083c0 .014.014.014.028.028s.014.042.028.056.028.028.042.028.028.042.056.056a1.291 1.291 0 0 0 .139.069.051.051 0 0 1 .042.014c.014 0 .014.014.028.014a.051.051 0 0 1 .042.014c.014 0 .028.014.042.014s.056.014.083.014h.014a.012.012 0 0 1 .014.014c.014 0 .028-.014.042 0s.028.014.042.014.028-.014.042-.014.028.014.042.014.028-.014.042-.014h.083c.014 0 .014-.014.028-.028l.014-.014a.014.014 0 0 1 .014-.014h.028a.04.04 0 0 0 .028-.014.04.04 0 0 1 .021-.026c.014 0 .014-.014.028-.028s.028-.028.042-.028l.028-.028c.014-.014.028-.014.042-.028s.014-.014.014-.028.028-.042.042-.056.014-.014.014-.028a.04.04 0 0 1 .028-.014c.014 0 .014-.014.014-.028s.014-.014.028-.028l.056-.056a.6.6 0 0 1 .1-.083.014.014 0 0 0 .014-.014.014.014 0 0 1 .014-.014c.014-.014.028-.042.042-.056l.042-.042c.014-.014.028-.042.056-.042s.042-.028.056-.056a.04.04 0 0 1 .028-.014.03.03 0 0 1 .028-.028.04.04 0 0 0 .014-.028c0-.014.014-.014.028-.028l.028-.028A.043.043 0 0 0 8.1 20.9c.014-.014.028 0 .028-.014s.014-.014.028-.028.028-.014.042-.028 0-.028.014-.028.014-.014.028-.014.014-.028.028-.028.042-.042.042-.056.014-.028.028-.042.014-.042.028-.042.014-.014.028-.014a.014.014 0 0 0 .014-.014h.014v-.014l.014-.014h.014a.043.043 0 0 0 .014-.028.04.04 0 0 1 .028-.014l.028-.028c.014-.014.042-.028.056-.056s.042-.028.042-.042.042-.042.042-.056.014-.014.028-.028a.049.049 0 0 1 .014-.028c.014-.014.042-.028.056-.042s.028-.042.042-.056l.042-.042a.04.04 0 0 0 .014-.028.04.04 0 0 1 .028-.014c.014-.014.014-.042.042-.056h.014l.028-.028.028-.028c.014-.014.028-.042.056-.056s.014-.042.042-.056.014-.014.028-.014a.048.048 0 0 1 .014-.028c.014-.014.028-.042.042-.056a.3.3 0 0 1 .069-.042c.042-.028.056-.083.083-.125a.219.219 0 0 1 .1-.1c.014 0 .014-.014.028-.014l.042-.042c.014-.014.014-.028.028-.042s.028-.014.042-.028.014-.042.042-.056.028-.014.042-.028V19.3a.012.012 0 0 1 .014-.014.04.04 0 0 1 .028-.014l.028-.028c.014-.014.014-.028.028-.028s.028-.014.042-.028a.139.139 0 0 0 .056-.069c.028-.028.056-.028.1-.083a.192.192 0 0 1 .056-.042.072.072 0 0 1 .056-.028l.042-.042c0-.014.014-.014.028-.014l.028-.028c.014-.014.028-.042.042-.056a.04.04 0 0 0 .028-.014l.028-.028a.192.192 0 0 1 .056-.042c.014-.014.028-.014.028-.028s0-.014.014-.028.028-.042.042-.056.042-.028.042-.056 0-.014.028-.028.014-.014.028-.014a.192.192 0 0 0 .042-.056c.014-.014.028-.014.028-.028a.043.043 0 0 0 .014-.028c.014-.014.042-.028.056-.042l.028-.028c.014-.014.028 0 .042-.014s.014-.014.014-.028.014-.014.028-.028.028-.014.042-.028.014-.014.014-.028.042-.028.056-.042l.028-.028a.04.04 0 0 1 .028-.014c.014-.014.028-.014.042-.028s.014-.028.028-.028c.014-.014.028-.014.042-.042s.069-.042.1-.083c.014-.014.028-.042.056-.042a.108.108 0 0 0 .056-.056l.028-.028a.043.043 0 0 1 .028-.014l.056-.056a.244.244 0 0 0 .069-.056.794.794 0 0 0 .111-.1c.014-.014.014-.028.028-.028a.3.3 0 0 0 .069-.042c.028-.028.042-.056.069-.069s.069-.069.111-.083.042-.042.056-.056h.014a.014.014 0 0 1 .014-.014c.014-.014.028-.014.042-.028l.056-.056c.014-.014.042-.028.056-.042s.042-.042.069-.056.028-.014.042-.028l.042-.042.028-.028a.014.014 0 0 1 .014-.014.014.014 0 0 0 .014-.014l.028-.028c.028-.014.042-.042.069-.056a.03.03 0 0 0 .028-.028.014.014 0 0 1 .014-.014h.028l.028-.028c.014-.014.028-.028.042-.028s.042-.028.056-.056l.056-.056-.005-.013a.04.04 0 0 1 .028-.014c.014 0 .014-.014.028-.028l.028-.028.014-.014h.028c.014-.014 0-.028.014-.028a.014.014 0 0 0 .014-.014l.014-.014.028-.028c.028-.014.042-.042.069-.056s.083-.069.125-.1a.04.04 0 0 1 .028-.014c.014 0 .014-.014.028-.028a1581.6 1581.6 0 0 0 .111-.083c.014-.014.042-.014.056-.042l.028-.028c.014 0 .028 0 .028-.014s0-.014.014-.014.014-.028.028-.028.042-.042.069-.056a.014.014 0 0 1 .014-.014h.006c.014 0 .014-.014.028-.014a.04.04 0 0 1 .028-.014c.014-.014.042-.028.056-.042s.042-.028.056-.042l.028-.028h.014a.014.014 0 0 0 .014-.014l.028-.028a.014.014 0 0 1 .014-.014h.014c0-.014.014-.014.028-.028a.04.04 0 0 1 .028-.014.04.04 0 0 0 .014-.028c0-.014.014-.014.028-.014s.014-.014.028-.014a.04.04 0 0 0 .014-.028.051.051 0 0 1 .042-.014c.014-.014.028-.014.042-.028s.028-.014.042-.028l.042-.042c.014-.014.028-.014.042-.028s.014-.056.028-.028c.014 0 .042-.028.056-.028s.042-.028.056-.042.042-.028.069-.056l.028-.028a.04.04 0 0 1 .028-.014c.014 0 .014-.014.028-.028l.028-.028a.192.192 0 0 0 .056-.042c.014-.014.042-.028.056-.042s.042-.028.056-.042.028-.014.042-.028a.072.072 0 0 1 .056-.028c.028-.014.042-.028.069-.042s.042-.028.056-.042a.049.049 0 0 0 .028-.014.04.04 0 0 1 .028-.014.072.072 0 0 1 .056-.028c.014-.014.028-.014.056-.028a.049.049 0 0 0 .028-.014h.014a.014.014 0 0 1 .014-.014c.014-.014.042-.014.056-.028v.042c0 .014.014.014 0 .042v.111c0 .028.014.042 0 .069a.049.049 0 0 1-.014.028.049.049 0 0 0 .014.028.67.67 0 0 0 0 .167v.083c0 .028.014.069 0 .083H15v.1c0 .028.014.056 0 .069v.846c0 .028.014.056 0 .083a.466.466 0 0 0 0 .139v.042c0 .014-.014.014-.014.042a.051.051 0 0 0 .014.042V17c0 .014.014.028 0 .042l-.014.014v.1c0 .014 0 .028.014.028v.083c0 .014-.014.028 0 .042a.051.051 0 0 0 .014.042v.249c0 .028-.014.042 0 .069v.069a.014.014 0 0 0-.014.014c.014 0 0 .028.014.042v.028c0 .014-.014.014-.014.028a.014.014 0 0 1 .014.014v.111c-.014 0-.028-.014-.028 0v.042c0 .014.014.014.014.028a.051.051 0 0 0 .014.042v.042c0 .014-.014.014-.014.028s.014.056.014.083-.014.041-.014.06v.069c0 .028-.014.042-.014.069v.125A.051.051 0 0 0 15 18.6a.385.385 0 0 1 .014.125v.075c0 .014-.014.028-.014.056v.332c0 .014-.014.014-.014.028s0 .014.014.042v.042c0 .028-.014.056-.014.083s-.014.042 0 .056v.042c0 .028-.014.056-.014.083v.291c0 .014.014.014.014.028a.125.125 0 0 1-.014.069v.042c0 .014-.014.014-.014.028v.078a.176.176 0 0 1-.014.083v.249a.049.049 0 0 1-.014.028c.014.014 0 .069 0 .083v.125c0 .014-.014.028-.014.042s.014.028 0 .042v.028c0 .042-.014.069-.014.111v.125c0 .014.014.028 0 .042s-.014.028-.014.042v.111c.014 0 .014.028.014.042l-.014.014c0 .014.014.014.014.028v.105c-.014 0 0 .069.014.083v.1a.014.014 0 0 0 .014.014v.125a.014.014 0 0 1 .014.014v.014a.049.049 0 0 0 .014.028c0 .014.014.056.014.069h.014v.042c0 .014 0 .028.014.028.014.028.014.056.028.069s.014.028.014.042v.014l.014.014c.014.028.014.042.028.069s.014.028.028.042.028.014.028.028.014.028.028.028.042.042.069.056.042.028.056.042.042.028.069.028c.056.014.111.042.167.056.028 0 .056.014.083.014h.139a.428.428 0 0 0 .139-.014c.014 0 .028-.014.042-.014h.042c.014 0 .014-.014.028-.028a.051.051 0 0 0 .042-.014c.056-.042.125-.083.181-.125l.028-.028.028-.028c.014-.028.028-.042.042-.069a.04.04 0 0 0 .014-.028.051.051 0 0 1 .014-.042c.014-.014.014-.028.028-.056s.014-.014.014-.028a.014.014 0 0 1 .014-.014v-.014a.019.019 0 0 1 .028 0V21.9h.014a.014.014 0 0 0 .014-.014c.014 0 .028 0 .028-.014s-.042-.014-.069-.028a.014.014 0 0 1-.014-.014h-.014v-.042c0-.014.014-.014.014-.028s0-.028.014-.028.056.014.042-.014a.014.014 0 0 1-.014-.014.012.012 0 0 1-.014-.014h.028a.019.019 0 0 0 0-.028c0-.014-.028-.028.014-.042 0 0 .028-.028.042-.028a.026.026 0 0 0 0-.042.049.049 0 0 1-.014.028c-.014 0 0-.014 0-.028s-.028 0-.028 0-.014-.014-.028-.014v.014c-.014 0-.028 0-.028-.014a.014.014 0 0 1 .014-.014s-.028-.014-.014-.028.028-.028.014-.042c0 .014-.014.028-.028.014l.014-.014c-.014.014-.014-.014-.014-.014s-.028 0-.042-.014a.014.014 0 0 0 .014-.014c-.014 0-.014-.014-.014-.028s-.014-.014 0-.028h.014a.014.014 0 0 1 .014-.014c.014 0 .028.014.028 0-.028 0 0-.028-.014-.028l-.014-.014h-.014c-.014 0-.028.014-.042 0v-.014l-.014-.014h.014v-.014c.028 0 .014.014.014.014a.014.014 0 0 0 .014.014c.014 0 .028.014.042 0v-.028c.014 0 .042 0 .028-.014s-.028-.014-.014-.028a.014.014 0 0 1-.014-.014c.014-.014.014 0 .028 0a.014.014 0 0 0 .014-.014c-.028 0-.014-.028.014-.028s0 .028 0 .042.028-.028.028-.042a.04.04 0 0 0-.028-.014.04.04 0 0 1-.028-.014c-.014 0-.028-.028-.028-.042-.028-.028-.028.028-.056 0 .014-.014.028-.042.056-.028 0 0 0 .028.014.028a.03.03 0 0 0 .028-.028c-.014 0-.014-.014-.014-.028s-.028 0-.014-.014c-.014 0-.014-.014-.028-.014s-.014.014-.014.028a.042.042 0 0 1 0-.056c0-.014.014 0 0-.014a.014.014 0 0 0-.014-.014c-.014.028.028.056-.014.069a.147.147 0 0 1-.071-.017c0-.014-.014-.028-.014-.042s.014-.014 0-.028l-.014-.014v-.042c0-.014.014 0 .014-.014l.014-.014c-.014-.014-.014.014-.014-.014h.014v-.014q-.014-.014 0-.014c.014-.014.042 0 .056 0s.028-.014.042-.028h-.014s-.028-.028-.042-.028-.014.028-.028.028a.014.014 0 0 1-.014-.014c-.042-.014 0-.028.014-.042h.056a.051.051 0 0 0 .042-.014c-.014-.014-.028-.014-.028-.028s.014-.014.028-.028l.014-.014v-.014c0-.014.028-.014.028-.028l-.028-.014s.028 0 .014-.014l-.014.014c-.014 0 0-.014 0-.014h-.028v-.028h-.014c0-.014.014-.014.014-.028s-.014 0-.014-.014v-.014h-.015c-.014 0-.014-.014 0-.028v-.028a.04.04 0 0 0-.014-.028h-.014v-.008a.014.014 0 0 1 0-.028.014.014 0 0 0 .014.014v-.014l-.014-.014c-.014 0 0-.014 0-.028l.014-.014v-.028a.014.014 0 0 1-.014-.014.014.014 0 0 0-.014-.014h-.014v-.028s0-.028-.014-.028a143.164 143.164 0 0 1-.028.028c0 .014.014.014 0 .028h-.014a.014.014 0 0 0-.014-.014.014.014 0 0 1-.014-.014h-.01v-.036c0-.014-.014 0-.028-.014s0-.014.014-.014v-.018a.014.014 0 0 0 .014-.014V20.1c0-.014.014-.014.014-.028v-.042c-.014-.014-.028-.014-.028-.028a.028.028 0 1 1 .056 0c-.028 0 0 .042 0 .014V20a.014.014 0 0 0 .014-.014V19.9a.049.049 0 0 0 .014-.028h-.042c-.014-.028.042-.028.028-.042s-.069-.014-.042-.042l.028-.028v-.014c-.014-.014-.014 0-.014 0s-.028 0-.028-.014a.019.019 0 0 1 0-.028v-.028l.014-.014h.028c.028-.014-.014-.028-.042-.028s-.014.014-.028 0 0-.028.014-.028c.042-.014-.014-.056.014-.069h.014v-.014h.014a.012.012 0 0 0 .014-.014l.014-.014c0-.028-.042-.014-.056 0h-.014q.014-.014 0-.042-.014.014-.042 0c0-.014.014-.028.014-.042s-.042-.028-.042-.042.028-.028.028-.042.014-.056.014-.069a.04.04 0 0 1-.014-.028v-.014l-.014-.014c-.014-.042.028-.028.056-.028a.03.03 0 0 0 .028-.028c0-.014-.014-.014-.028-.014h-.016c-.014-.014 0-.014 0-.014v-.048a.014.014 0 0 0 .014-.014c0-.014-.014-.028-.028-.014s0 .014 0 .028a.049.049 0 0 1-.014.028c-.014 0-.014-.014-.028 0-.014-.014 0-.014 0-.014a.014.014 0 0 0-.014-.014c0-.028.028-.014.028-.028s-.014-.028-.028-.042.014-.028.014-.042.069 0 .083-.014 0-.028-.014-.028-.028 0-.028-.028.014-.028 0-.042-.028 0-.042-.014.014-.028 0-.028v-.014c0-.014-.014 0-.014-.014-.028 0 0-.014.014-.028v-.014a.014.014 0 0 0 .014-.014.051.051 0 0 1 .014-.042c.014-.014.028 0 .042 0s.028-.028.028-.042-.014.028-.014.028-.028.014-.028 0 .014-.014.014-.028V18.6a.014.014 0 0 0 .014-.014c-.014-.014-.014.014-.014.014a.049.049 0 0 1-.028.014c-.014 0 0-.014 0-.028s-.014-.014-.028-.014.014 0 .028-.014-.014-.028 0-.042a.014.014 0 0 1 .014-.014q0-.014-.014 0v.014l-.014.014h-.014v-.042l.014-.014c0-.014-.014-.014-.028-.014v-.014l-.014-.014a.019.019 0 0 1 0-.028l.014-.014.014-.014.028-.028c0-.014 0-.028-.014-.028s-.014 0-.014-.014 0-.014.014-.014h.028v-.014h-.042c-.014 0-.028.014-.028-.014s.028 0 .042 0h.028c.014 0 0 0 .014-.014a.049.049 0 0 0 .028-.014v-.014a.014.014 0 0 1-.014-.014.049.049 0 0 1 .014-.028v-.014a.014.014 0 0 1-.014-.014c-.014 0-.028-.014-.014-.028s.028 0 .042 0 .014-.014.014-.028a.04.04 0 0 0-.028-.014l-.011-.012v-.014c0-.014-.014-.014-.014-.028s0-.014.014-.014a.014.014 0 0 0 .011-.014.051.051 0 0 1 .042.014l.014.014v-.069l-.014-.014c-.014-.014-.028.028-.042.014s.028 0 .014-.028-.028-.014-.028 0v.014c-.014 0 0-.014 0-.014a.014.014 0 0 1-.014-.014l.017-.017c-.014-.014.014-.014.028-.014s.014-.014 0-.014h-.014s0-.028-.014-.042a.014.014 0 0 1-.014-.014c0-.014 0-.014.014-.014a.014.014 0 0 0 .014-.014v-.038l.014-.014a.043.043 0 0 1 .028-.014.051.051 0 0 0 .042-.014v-.014h-.014a.012.012 0 0 1-.014-.014.014.014 0 0 0-.014-.014c0-.028.014-.014.028-.028s0-.014 0-.014h-.014a.014.014 0 1 1 0-.028c.014 0 .014-.014.014-.028a.014.014 0 0 0-.014.014h-.014a.014.014 0 0 1 .014-.014v-.028a.049.049 0 0 1 .014-.028s.014-.014 0-.014l-.014.014s-.014.042-.028.028 0-.028.014-.042.014-.028.014-.042.014-.028 0-.028h-.014a.014.014 0 0 1 .014-.014V17.4h-.014l-.014-.014a.012.012 0 0 1 .014-.014c.014 0 .014-.014.014-.028v-.111h-.014l-.014-.014c-.014 0-.014-.014-.014-.028v-.028h.014l.014-.014c0-.014 0-.028-.014-.028h-.014a.014.014 0 0 0-.014.014H16.2v-.014c0-.014.014 0 .014-.014v-.028h.014c.014 0 .014-.028.014-.042V17c0-.014.014-.028 0-.028h-.014v-.014h.014v-.195h.014v-.027a.012.012 0 0 0-.014-.014l.014-.014V16.527a.014.014 0 0 1 .014-.014h.014c0-.014-.014 0-.014 0V16.5h-.014v-.07h-.014v-.03c0-.014.014-.014 0-.028h-.014a.014.014 0 0 0-.014.014H16.2a.014.014 0 0 1-.014-.014h.014v-.028h.014v-.014a.012.012 0 0 0-.014-.014c0-.014.014-.014.028-.014h.028v-.014l-.014-.014h-.014v-.042h.014v-.028h-.014l-.014-.014a.014.014 0 0 0-.014-.014v.014s-.028 0-.014-.014a.014.014 0 0 0 .014-.014v-.014a.04.04 0 0 1 .014-.028c0-.014.014-.014.014-.028v-.014h-.014a.014.014 0 0 1-.014-.014v-.263s.014-.014 0-.014l-.014-.014v-.028a.014.014 0 0 1 .014-.014v-.028h-.014v-.028l.014-.014a.043.043 0 0 1 .014-.028.012.012 0 0 1 .014-.014.019.019 0 0 0 0-.028.014.014 0 0 1-.014-.014v-.028a.014.014 0 0 1 .014-.014c0-.014-.028-.014-.028-.014v-.042c0-.014 0-.014.014-.014s.014 0 .014-.014V15.4c0-.014.014-.028 0-.042a63.618 63.618 0 0 0-.028-.028.057.057 0 0 1-.014-.042v-.014l-.014-.014a.051.051 0 0 1 .014-.042h.028v.028c.014.014.028 0 .028-.014s-.014-.014-.014-.028a.014.014 0 0 1 .014-.014v-.014c-.014 0-.028 0-.028-.014s.014-.028 0-.042a.014.014 0 0 1-.014-.014V15.1a.014.014 0 0 0 .014-.014v-.028l.014-.014-.014-.014.014-.014v-.028a.012.012 0 0 1 .014-.014c0-.014.014-.014.014-.028v-.083c0-.014-.014 0-.014 0v-.014a.012.012 0 0 0-.014-.014h-.014a.014.014 0 0 1-.014-.014c0-.014 0-.014.014-.014s.014-.028.014-.042 0-.014.014-.014v-.056c0-.014.014-.014.014-.028a.014.014 0 0 0-.014-.014c-.014 0 0 .014-.014.014s-.042-.014-.028-.014v-.028l.014-.014a.012.012 0 0 0 .014-.014l.014-.014a63.619 63.619 0 0 1 .028-.028v-.028a.014.014 0 0 0-.014.014c-.014 0-.014-.014-.014-.028V14.5a.012.012 0 0 1 .014-.014v-.042a.014.014 0 0 0-.014-.014v-.03a.049.049 0 0 1 .014-.028v-.028a.014.014 0 0 1-.014-.014v-.014h.028v-.028c-.014 0-.028 0-.028-.014s.014-.014.014-.028v-.028a.04.04 0 0 1 .014-.028.019.019 0 0 0 0-.028.014.014 0 0 1-.014-.014v-.028c0-.014.014-.014.028-.028s.028-.028.028-.042c0-.014.014-.014.014-.028a.04.04 0 0 0 .028.014.014.014 0 0 1 .014-.014c.014 0 .028 0 .028-.014a.043.043 0 0 1 .014-.028c.014-.014.042 0 .056-.014l.014-.014a.014.014 0 0 0 .014-.014.04.04 0 0 0 .014-.028c0-.014.014-.014.014-.028a.014.014 0 0 0 .014-.014l.014-.014a.014.014 0 0 0 .014-.014l.014-.014h.014c-.014-.014 0-.028.014-.028h.014v-.028a.014.014 0 0 0 .014-.014h.028v-.006h.014a.048.048 0 0 1 .028-.014l.014-.014a.014.014 0 0 1 .014-.014c.014-.014.028-.028.042-.028h.014v-.014c0-.014.014-.014.028-.028h.014a.014.014 0 0 1 .014-.014l.014-.014a.014.014 0 0 0 .014-.014l.014-.014.014-.014h.014c.014-.014.056-.069.069-.042a.192.192 0 0 1 .056-.042c0-.014.014-.014.028-.014a.049.049 0 0 0 .028-.014.192.192 0 0 0 .056-.042c.014 0 .014-.014.028-.028a.04.04 0 0 1 .028-.014c.014-.014.042-.028.056-.042a.185.185 0 0 1 .069-.042.057.057 0 0 1 .042-.014.051.051 0 0 0 .042-.014v-.014a.014.014 0 0 1 .014-.014.049.049 0 0 0 .028-.014c.014-.014.014 0 .028 0s.042 0 .042-.014l-.014-.014c0-.014.014-.014.028-.014s.014-.014.028-.014.014-.014.028-.014a.014.014 0 0 0 .014-.014l.014-.014c.014 0 .028 0 .028-.014l.028-.028c.014-.014.056-.014.069-.028v-.014c.028-.014.042-.028.069-.042a.014.014 0 0 0 .014-.014.014.014 0 0 1 .014-.014c.014-.014.028 0 .028-.028.014 0 .042-.042.056-.028.014-.028.028-.028.056-.042s.042-.028.056-.042.014-.014.028-.014.014-.014.028-.014.042-.028.056-.042.042-.028.069-.042.042-.014.056-.028l.028-.028a.04.04 0 0 1 .028-.014h.014a.014.014 0 0 1 .014-.014h.028l.014-.014.028-.028c.028-.014.042-.028.069-.042s.1-.056.139-.083a.192.192 0 0 1 .056-.042c.028-.014.042-.028.069-.042s.1-.056.139-.083a.3.3 0 0 0 .069-.042c.028-.014.042-.028.069-.042s.042-.028.069-.042a.185.185 0 0 0 .069-.042c.014-.014.042-.028.056-.042s.042-.014.069-.028.014-.014.028-.028.028 0 .028-.014L19.38 12a.051.051 0 0 1 .042-.014c.014 0 .014-.014.028-.014a.043.043 0 0 1 .028-.014.192.192 0 0 0 .056-.042.03.03 0 0 0 .028-.028.051.051 0 0 1 .042-.014c.014 0 .014-.014.028-.014h.014a.014.014 0 0 1 .014-.014c.014-.014.028 0 .042-.014s.014-.014.028-.014a.192.192 0 0 1 .056-.042.118.118 0 0 0 .069-.042l.028-.028c.014 0 .028-.014.042-.014s.042-.028.069-.042a.563.563 0 0 1 .125-.069c.014 0 .014-.014.028-.014a.2.2 0 0 1 .056-.028c.014 0 .014-.014.028-.014s.042-.028.069-.042a.3.3 0 0 1 .069-.042.04.04 0 0 0 .028-.014c.014 0 .014-.014.028-.014s.056-.014.056-.028a.04.04 0 0 0 .028-.014.014.014 0 0 0 .014-.014c.014 0 .028-.028.042-.028h.028l.028-.014.014-.014c.014 0 .014-.014.028-.014l.028-.028c.014 0 .028-.014.042-.014s.042-.028.069-.042.014-.014.028-.028.056-.014.069-.028.014-.014.028-.014l.083-.042a.051.051 0 0 1 .042-.014c0-.014.014-.014.028-.028s.042-.014.056-.014.042-.028.056-.042.014-.014.028-.014.014 0 .028-.014a.105.105 0 0 1 .056-.028.049.049 0 0 0 .028-.014.043.043 0 0 0 .014-.028h.042c.014 0 0-.014.014-.014h.014c.028-.014.042-.028.069-.042s.042-.028.069-.028.014-.014.028-.014h.018l.014-.014.083-.042c.014-.014.056-.028.069-.042s.042-.014.069-.028.056-.014.069-.028a.126.126 0 0 1 .1-.042.072.072 0 0 1 .056-.028.04.04 0 0 0 .028-.014.014.014 0 0 1 .014-.014.051.051 0 0 1 .042-.014c0-.014.014-.014.028-.014a.235.235 0 0 0 .083-.042c.014 0 .014-.014.028-.014s.014 0 .014-.028h.028v-.014h.014a.105.105 0 0 1 .056-.028c.014 0 .014 0 .028-.014s.014-.014.028-.014a.105.105 0 0 1 .056-.028c.014 0 .014-.014.028-.014s.028 0 .042-.014.056-.028.056-.042.028-.014.028-.028.042-.014.056-.028.028-.028.042-.028.028-.014.042-.014.042-.014.069-.028a.207.207 0 0 1 .1-.042c.028 0 .042-.028.069-.028a.051.051 0 0 1 .042-.014c.014 0 .014 0 .014-.014h.005v-.001c.014-.014.042-.014.069-.028A.04.04 0 0 1 23.2 10c.014 0 .014-.014.028-.014s.056-.014.083-.028.042-.028.069-.028.042-.028.069-.028.042-.014.069-.028.042-.014.069-.028.014-.014.028-.014.028.014.042 0c-.014-.014.014-.014.028-.014s.014-.014.028-.014a.106.106 0 0 1 .069-.028c.028-.014.056-.014.069-.028s.028-.014.042-.028a.051.051 0 0 0 .042-.014c.014-.014.028-.014.056-.028s.028-.014.056-.014.042-.014.056-.028a.084.084 0 0 0 .056-.014.2.2 0 0 1 .056-.028c.014 0 .042-.014.056-.014a.85.85 0 0 0 .167-.069c.028-.014.056-.014.083-.028s.153-.042.181-.056a.783.783 0 0 1 .167-.056.2.2 0 0 1 .083-.028.885.885 0 0 1 .1-.028.783.783 0 0 0 .167-.056c.028-.014.056-.014.083-.028l.125-.042a.581.581 0 0 1 .139-.056c.014-.014.042-.014.056-.028s.111-.056.125-.069.042-.028.069-.042a.653.653 0 0 1 .125-.083.049.049 0 0 1 .028-.014c0-.014.014-.028.028-.042s.042-.014.028-.028c.014-.014.014 0 .028-.028s.028-.014.042-.028.042-.042.042-.069.028-.028.042-.056.014-.028.014-.042a.049.049 0 0 1 .014-.028.014.014 0 0 1 .014-.014h.014s.014.028.028.014-.014-.028-.014-.042a.014.014 0 0 1 .014-.014V8.5a.03.03 0 0 0 .028-.028c-.014-.014.014-.069.028-.042v.014a.014.014 0 0 0 .014-.014V8.4c0-.014.014-.014.014-.028v-.041c0-.014.028-.014.042-.014a.03.03 0 0 0 .028-.028 5.532 5.532 0 0 0-.665-.263M10.993 24.793l.943 2.2h-.444l-.207-.5h-.97l-.207.5h-.43l.943-2.2h.374zm.153 1.344-.346-.832-.346.832zm2.952-.221a.583.583 0 0 0-.221-.125c-.083-.028-.181-.069-.291-.1-.083-.014-.153-.042-.221-.056a.952.952 0 0 1-.153-.056.6.6 0 0 1-.1-.083.15.15 0 0 1-.028-.111.206.206 0 0 1 .083-.181.459.459 0 0 1 .263-.069.8.8 0 0 1 .194.028c.069.014.125.042.181.056a1.29 1.29 0 0 1 .139.069.822.822 0 0 1 .083.056l.196-.344a1.148 1.148 0 0 0-.346-.167 1.393 1.393 0 0 0-.43-.069 1.177 1.177 0 0 0-.319.042.681.681 0 0 0-.263.139.556.556 0 0 0-.167.221.667.667 0 0 0-.056.3.567.567 0 0 0 .042.221 1.159 1.159 0 0 0 .111.167 1.213 1.213 0 0 0 .194.125c.083.028.167.069.277.1.083.028.167.042.235.069a.7.7 0 0 1 .181.069.384.384 0 0 1 .111.083.17.17 0 0 1 .042.125c0 .153-.125.221-.36.221a1.507 1.507 0 0 1-.249-.028.609.609 0 0 1-.226-.08.48.48 0 0 1-.167-.1.346.346 0 0 1-.1-.069l-.194.374a1.216 1.216 0 0 0 .43.207 2.013 2.013 0 0 0 .5.069 1.077 1.077 0 0 0 .3-.042.872.872 0 0 0 .263-.111.531.531 0 0 0 .181-.207.658.658 0 0 0 .069-.3.525.525 0 0 0-.056-.263.424.424 0 0 0-.139-.181" transform="translate(.108 .509)" style="fill:#dc1f26"/>
    </g>
</svg>
