<svg xmlns="http://www.w3.org/2000/svg" width="20.152" height="20.152" viewBox="0 0 20.152 20.152">
    <g data-name="Group 9379">
        <path data-name="Path 6365" d="M10.556 19.4c-7.109-3.883-7.978-9.168-7.422-15.3l.066-.73.731-.035c2.781-.135 4.76-.784 6.055-1.973l.57-.524.571.524C12.42 2.551 14.4 3.2 17.181 3.335l.731.035.067.73c.559 6.163-.342 11.428-7.423 15.3zM3.973 4.174C3.517 9.2 3.94 14.833 10.555 18.443c6.617-3.611 7.045-9.237 6.587-14.266-2.983-.149-5.139-.87-6.583-2.2-1.444 1.327-3.6 2.045-6.585 2.194z" transform="translate(-.48 -.134)" style="fill:#707070"/>
        <path data-name="Path 6366" d="M0 0h20.152v20.152H0z" style="fill:none"/>
        <path d="m4 9.066 2.067 2.053 4.65-4.619" transform="translate(2.717 1.267)" style="stroke:#707070;stroke-linecap:round;stroke-linejoin:round;fill:none"/>
    </g>
</svg>
