<svg id="icon-cart" xmlns="http://www.w3.org/2000/svg" width="24.994" height="22.843" viewBox="0 0 24.994 22.843">
  <path id="Path_1083" data-name="Path 1083" d="M571.573,219.089a2.982,2.982,0,1,0,2.982,2.982A2.985,2.985,0,0,0,571.573,219.089Zm0,4.426a1.445,1.445,0,1,1,1.445-1.445A1.446,1.446,0,0,1,571.573,223.515Z" transform="translate(-551.678 -202.209)" fill="#e10a0a"/>
  <path id="Path_1084" data-name="Path 1084" d="M583.394,213.984H564.7l-.885-3.708a.766.766,0,0,0-.749-.591h-3.129a.769.769,0,1,0,0,1.538h2.522l.032.136,3.082,12.9a.768.768,0,0,0,.749.589h14.762a.765.765,0,0,0,.747-.582l2.308-9.327a.769.769,0,0,0-.747-.953Zm-2.91,9.325H566.931l-.032-.138-1.829-7.649h17.343Z" transform="translate(-559.169 -209.685)" fill="#e10a0a"/>
  <path id="Path_1085" data-name="Path 1085" d="M565.179,219.089a2.982,2.982,0,1,0,2.983,2.982A2.984,2.984,0,0,0,565.179,219.089Zm0,4.426a1.445,1.445,0,1,1,1.445-1.445A1.446,1.446,0,0,1,565.179,223.515Z" transform="translate(-556.76 -202.209)" fill="#e10a0a"/>
</svg>
