<svg xmlns="http://www.w3.org/2000/svg" width="132.979" height="25.001" viewBox="0 0 132.979 25.001">
  <g id="Group_8324" data-name="Group 8324" transform="translate(8591 -18875.17)">
    <g id="Group_8320" data-name="Group 8320" transform="translate(-8555.098 18876.016)">
      <path id="Path_5343" data-name="Path 5343" d="M1743.578,30.249a6.235,6.235,0,0,1,2.085.638,5.18,5.18,0,0,1,2.828,3.785,9.073,9.073,0,0,1,.187,1.825,5.9,5.9,0,0,1-1.182,3.727,6.5,6.5,0,0,1-3.161,2.213,5.589,5.589,0,0,1-3.5-.023c-.553-.177-1.078-.442-1.612-.673-.394-.171-.624-.2-.892.209a1.576,1.576,0,0,1-1.693.569,3.525,3.525,0,0,1-.391-.095V23.3h3.642v7.75a6.441,6.441,0,0,1,2.351-.773c.257.017.475.032.694.026s.427-.033.64-.051m.674,8.3a5.073,5.073,0,0,0,.477-.777,3.807,3.807,0,0,0,.3-1.911,2.752,2.752,0,0,0-1.453-2.2,2.934,2.934,0,0,0-2.815.079,1.187,1.187,0,0,0-.694,1.122c-.014,1.045-.017,2.09,0,3.135a1.419,1.419,0,0,0,.655,1.217,2.3,2.3,0,0,0,1.452.32A2.9,2.9,0,0,0,1744.252,38.552Z" transform="translate(-1679.718 -23.233)" fill="#999"/>
      <path id="Path_5344" data-name="Path 5344" d="M884.23,170.031a4.307,4.307,0,0,1,.479.013.945.945,0,0,0,.115.049,1.691,1.691,0,0,1,.262.319q1.095,2.314,2.174,4.636c.107.23.2.464.318.724.287-.473.567-.932.845-1.393q1.206-2,2.412-3.994a1.693,1.693,0,0,1,.248-.307.453.453,0,0,1,.8.073c.235.347.455.7.673,1.063q1.245,2.05,2.484,4.1c.086.142.166.287.259.45.247-.516.491-1.016.725-1.522.307-.667.6-1.339.907-2.008q.39-.86.785-1.718a.874.874,0,0,1,.613-.52.122.122,0,0,0,.065-.015c1.066,0,2.131-.007,3.229.008l.084.05c-.525,1.127-1.037,2.26-1.577,3.38-.8,1.659-1.619,3.308-2.43,4.961-.44.9-.879,1.8-1.325,2.69a.765.765,0,0,1-1.305.084c-.607-.98-1.193-1.974-1.79-2.96q-.842-1.39-1.69-2.775c-.036-.059-.083-.112-.145-.194-.349.573-.687,1.128-1.024,1.684-.792,1.307-1.576,2.619-2.379,3.919a.986.986,0,0,1-.814.585c-.5.013-.713-.336-.892-.7-.688-1.382-1.354-2.774-2.034-4.16-.564-1.15-1.14-2.3-1.7-3.446-.485-.992-.96-1.989-1.427-3.012.023-.058.034-.088.044-.118.959,0,1.918-.007,2.913.009A.674.674,0,0,0,884.23,170.031Z" transform="translate(-870.12 -162.01)" fill="#999"/>
      <path id="Path_5345" data-name="Path 5345" d="M2007.086,154.173a6.171,6.171,0,0,1,3.948,1.9,5.986,5.986,0,0,1,1.631,3.36,6.157,6.157,0,0,1-4.847,7.013,6.711,6.711,0,0,1-4.445-.492,5.927,5.927,0,0,1-2.853-2.833,6.3,6.3,0,0,1-.617-2.735,5.919,5.919,0,0,1,.757-3.043,6.139,6.139,0,0,1,3.621-2.909,9.426,9.426,0,0,1,1.258-.252c.542,0,1.044,0,1.547-.012m.822,8.762a4.463,4.463,0,0,0,.55-.563,3.377,3.377,0,0,0,.194-3.716,2.667,2.667,0,0,0-3.513-1.115,2.892,2.892,0,0,0-1.56,2.2,3.3,3.3,0,0,0,.513,2.552A2.674,2.674,0,0,0,2007.908,162.935Z" transform="translate(-1929.346 -147.148)" fill="#999"/>
      <path id="Path_5347" data-name="Path 5347" d="M1294.649,41.444c0-.813-.009-1.626-.009-2.439,0-2.024,0-4.049,0-6.12-.072-.086-.145-.157-.221-.159-.433-.011-.866-.014-1.3,0-.191.005-.24-.065-.238-.246.009-.84.006-1.68.006-2.52h1.75c0-.651,0-1.277,0-1.9,0-.271-.043-.542-.046-.814a4.7,4.7,0,0,1,2.1-4.382,5.293,5.293,0,0,1,2.24-.735,7.747,7.747,0,0,1,3.877.755c.387.155.715.346.721.79a1.759,1.759,0,0,1-.207.722c-.133.285-.341.534-.471.82a1.054,1.054,0,0,1-1.368.443,4.533,4.533,0,0,0-1.735-.439,1.3,1.3,0,0,0-1.42,1.275c-.107,1.137-.114,2.284-.164,3.455h2.749c0,.989,0,1.952-.028,2.914a.2.2,0,0,0-.068.02h-2.606v.307c0,2.01,0,4.019,0,6.029,0,.51.048,1.02.04,1.53a1.52,1.52,0,0,1-.165.587c-.04.086-.176.127-.295.172a1.238,1.238,0,0,0-.3-.059C1296.542,41.442,1295.6,41.444,1294.649,41.444Z" transform="translate(-1259.934 -22.086)" fill="#999"/>
      <path id="Path_5348" data-name="Path 5348" d="M2245.951,166.493a2.643,2.643,0,0,1,.951.914c.466.673.958,1.328,1.468,2.029.318-.424.6-.818.9-1.2.374-.475.744-.955,1.147-1.4a1.635,1.635,0,0,1,1.243-.527c.617-.007,1.235-.037,1.853-.043a7.007,7.007,0,0,1,.814.047.535.535,0,0,1,.259.882c-.577.7-1.165,1.4-1.754,2.1-.566.669-1.146,1.327-1.7,2-.376.455-.35.677.065,1.173q1.23,1.472,2.46,2.945c.477.572.951,1.146,1.429,1.717a.568.568,0,0,1,.069.62.454.454,0,0,1-.5.257c-.212-.014-.426-.007-.638,0-.59.014-1.181.041-1.772.047a2.164,2.164,0,0,1-1.786-.942c-.606-.78-1.219-1.556-1.829-2.333-.069-.088-.141-.175-.23-.286-.26.319-.509.622-.755.927-.589.728-1.161,1.469-1.772,2.178a1.133,1.133,0,0,1-.9.416c-.919-.008-1.838.028-2.756.04a.581.581,0,0,1-.612-.308.625.625,0,0,1,.159-.717c.514-.619,1.017-1.247,1.533-1.864.546-.653,1.1-1.3,1.652-1.946.25-.294.512-.578.738-.89a.745.745,0,0,0-.041-1.051c-.434-.518-.891-1.017-1.33-1.531-.529-.62-1.049-1.247-1.57-1.874-.184-.221-.361-.449-.543-.672a.493.493,0,0,1-.078-.561.512.512,0,0,1,.492-.324c.231,0,.461,0,.691,0,.538-.013,1.077-.061,1.612-.036A5.593,5.593,0,0,1,2245.951,166.493Z" transform="translate(-2158.141 -158.594)" fill="#999"/>
      <path id="Path_5350" data-name="Path 5350" d="M1509.682,95.765h-2.759v.31c0,1.471.021,2.943-.007,4.414-.02,1.074.708,1.264,1.493,1.158.3-.041.6-.111.9-.124a.835.835,0,0,1,.828.46,5.657,5.657,0,0,1,.394,1.342c.1.569-.257.892-.749,1.081a6.8,6.8,0,0,1-3.073.387,3.639,3.639,0,0,1-2.539-1.078,2.878,2.878,0,0,1-.767-1.876q-.053-1.558-.1-3.116c-.018-.591-.029-1.181-.052-1.772-.014-.367-.045-.734-.069-1.122h-1.888V92.735c.63,0,1.265,0,1.945,0a.461.461,0,0,0,.111-.266c0-1.089.01-2.179,0-3.268,0-.241.071-.3.3-.293,1.072.012,2.143,0,3.215,0q.006,1.645.011,3.29c0,.149,0,.3,0,.486.928,0,1.844,0,2.785.027C1509.684,93.748,1509.683,94.756,1509.682,95.765Z" transform="translate(-1457.259 -85.35)" fill="#999"/>
      <path id="Path_5351" data-name="Path 5351" d="M678.472,154.323a12.9,12.9,0,0,1,1.558.127,5.063,5.063,0,0,1,2.314,1.029,5.743,5.743,0,0,1,.536.51.2.2,0,0,1,.012.2c-.393.472-.807.926-1.191,1.4a.658.658,0,0,1-.783.189c-.481-.146-.949-.334-1.421-.508a.84.84,0,0,0-.908.085.686.686,0,0,0,.125,1.2c.589.259,1.2.473,1.8.7a5.406,5.406,0,0,1,2.089,1.275,3.02,3.02,0,0,1,.876,1.886,3.73,3.73,0,0,1-.58,2.413,3.971,3.971,0,0,1-2.323,1.663,7.189,7.189,0,0,1-2.654.246,6.078,6.078,0,0,1-3.268-1.272c-.415-.324-.794-.694-1.216-1.067l1.9-2.013.79.461a6.731,6.731,0,0,0,2.186.916,2.532,2.532,0,0,0,.93.008.762.762,0,0,0,.354-1.319,5.519,5.519,0,0,0-1.89-1.213,9.475,9.475,0,0,1-2.193-1.111,2.763,2.763,0,0,1-1.117-2.163,3.114,3.114,0,0,1,.628-2.145,3.879,3.879,0,0,1,2.176-1.337A12.731,12.731,0,0,1,678.472,154.323Z" transform="translate(-673.437 -147.29)" fill="#999"/>
    </g>
    <g id="Group_8323" data-name="Group 8323" transform="translate(-8591 18875.17)">
      <path id="Path_5342" data-name="Path 5342" d="M205.769,22.686c.753-1.059,1.492-2.1,2.233-3.149.629-.888,1.279-1.763,1.884-2.667a2.7,2.7,0,0,0-.182-3.136l-3.834-5.12q-.678-.906-1.352-1.815a2.447,2.447,0,0,1-.126-.229c.831-.665,1.63-1.386,2.511-1.989a7.52,7.52,0,0,1,3.342-1.27,9.258,9.258,0,0,1,1.382-.14,9.873,9.873,0,0,1,3.342.6,9.412,9.412,0,0,1,2.456,1.415,9.689,9.689,0,0,1,1.9,2.111c.135.194.264.394.411.579.095.12.074.188-.035.284a22.433,22.433,0,0,0-1.742,1.574,9.242,9.242,0,0,0-2.256,4.341,9.7,9.7,0,0,0-.191,2.334c.008.335.045.669.043,1a13.754,13.754,0,0,1-.5,3.506,10.808,10.808,0,0,1-1.415,3.162,8.426,8.426,0,0,1-3.352,2.943,8.769,8.769,0,0,1-3.412.975c-1.638.088-3.279.107-4.919.156l-.033-.086Q203.843,25.386,205.769,22.686Z" transform="translate(-191.533 -3.157)" fill="#999"/>
      <path id="Path_5346" data-name="Path 5346" d="M6.735,27.884H6.482c.334-.479.645-.93.96-1.377q1.123-1.592,2.25-3.181,1.216-1.719,2.432-3.438c.551-.782,1.1-1.568,1.641-2.354a11.361,11.361,0,0,0,.71-1.045,2.643,2.643,0,0,0-.246-3.02Q11.867,10.258,9.5,7.051C8.553,5.773,7.6,4.5,6.651,3.229c-.057-.077-.1-.161-.18-.28.114-.006.2-.014.276-.014,1.037,0,2.074,0,3.111,0a.45.45,0,0,1,.418.2q2.071,2.788,4.161,5.562c1,1.326,2,2.644,3,3.973a5.309,5.309,0,0,1,1,1.54,2.783,2.783,0,0,1-.315,2.547q-2,2.843-4.014,5.675-1.545,2.18-3.094,4.357c-.219.308-.448.607-.659.92a.363.363,0,0,1-.345.181C8.921,27.881,7.84,27.884,6.735,27.884Z" transform="translate(-6.472 -2.931)" fill="#999"/>
      <path id="Path_5349" data-name="Path 5349" d="M116.9,14.338a3.132,3.132,0,0,1-.577,3.248c-.669.868-1.287,1.775-1.923,2.668-.779,1.094-1.552,2.192-2.328,3.287q-1.577,2.222-3.154,4.445a.487.487,0,0,1-.454.23c-1.134-.013-2.268-.006-3.442-.006.239-.35.458-.679.686-1,.674-.954,1.354-1.9,2.027-2.858q2.1-2.981,4.192-5.966c.308-.438.628-.867.939-1.3a2.78,2.78,0,0,0-.069-3.257q-2.366-3.2-4.736-6.387c-1.017-1.374-2.029-2.753-3.069-4.164a8.886,8.886,0,0,1,.894.048,7.8,7.8,0,0,1,2.164.6,7.666,7.666,0,0,1,1.846,1.2,14.7,14.7,0,0,1,1.861,2.255q1.525,2.016,3.035,4.043.923,1.232,1.839,2.469A4.709,4.709,0,0,1,116.9,14.338Z" transform="translate(-99.747 -3.257)" fill="#999"/>
    </g>
  </g>
</svg>
